<?xml version="1.0" encoding="UTF-8" standalone="no"?>
<!DOCTYPE svg PUBLIC "-//W3C//DTD SVG 1.1//EN" "http://www.w3.org/Graphics/SVG/1.1/DTD/svg11.dtd">
<svg width="100%" height="100%" viewBox="0 0 300 300" version="1.1" xmlns="http://www.w3.org/2000/svg" xmlns:xlink="http://www.w3.org/1999/xlink" xml:space="preserve" xmlns:serif="http://www.serif.com/" style="fill-rule:evenodd;clip-rule:evenodd;stroke-linejoin:round;stroke-miterlimit:2;">
    <g id="Capa1">
        <g transform="matrix(5.93692,0,0,5.93692,10.4819,208.239)">
            <path d="M0,-11.675C0.483,-13.201 0.966,-14.728 1.452,-16.254C2.038,-18.096 2.604,-19.945 3.233,-21.773C3.409,-22.284 3.735,-22.757 4.056,-23.201C4.736,-24.147 5.676,-24.618 6.854,-24.615C9.138,-24.608 11.421,-24.599 13.704,-24.617C15.59,-24.632 16.707,-23.572 17.312,-21.945C17.919,-20.313 18.385,-18.629 18.901,-16.964C19.434,-15.248 19.97,-13.534 20.472,-11.81C20.861,-10.473 19.798,-9.312 18.474,-9.604C17.71,-9.772 17.345,-10.329 17.131,-11.036C16.409,-13.415 15.677,-15.791 14.947,-18.168C14.887,-18.366 14.803,-18.56 14.766,-18.762C14.674,-19.263 14.383,-19.364 13.889,-19.207C13.94,-19.002 13.981,-18.805 14.04,-18.614C15.646,-13.363 17.254,-8.113 18.861,-2.863C18.882,-2.797 18.895,-2.729 18.914,-2.663C19.076,-2.107 19.045,-2.057 18.485,-2.054C17.534,-2.05 16.582,-2.03 15.631,-2.063C15.161,-2.079 15.051,-1.907 15.053,-1.463C15.068,2.377 15.077,6.217 15.047,10.057C15.043,10.568 14.907,11.133 14.66,11.575C14.204,12.393 13.162,12.721 12.26,12.464C11.359,12.208 10.719,11.448 10.683,10.499C10.644,9.48 10.66,8.459 10.659,7.438C10.657,4.463 10.663,1.488 10.648,-1.487C10.648,-1.673 10.547,-1.972 10.418,-2.02C10.036,-2.163 9.925,-1.931 9.927,-1.556C9.937,1.177 9.931,3.909 9.93,6.643C9.93,7.819 9.946,8.995 9.924,10.171C9.89,11.897 8.468,12.957 6.955,12.41C6.054,12.084 5.51,11.286 5.505,10.23C5.496,8.016 5.502,5.802 5.502,3.588C5.502,1.875 5.492,0.163 5.51,-1.55C5.514,-1.931 5.401,-2.07 5.012,-2.06C4.096,-2.038 3.179,-2.053 2.262,-2.053C1.475,-2.054 1.468,-2.063 1.689,-2.79C3.298,-8.04 4.906,-13.289 6.513,-18.54C6.577,-18.751 6.621,-18.968 6.679,-19.197C6.202,-19.37 5.949,-19.263 5.805,-18.778C5.021,-16.165 4.219,-13.557 3.414,-10.951C3.016,-9.662 1.722,-9.13 0.74,-9.881C0.43,-10.118 0.243,-10.519 0,-10.844L0,-11.675Z" style="fill:rgb(194,10,48);fill-rule:nonzero;"/>
        </g>
        <g transform="matrix(5.93692,0,0,5.93692,208.151,161.9)">
            <path d="M0,17.717L0,-10.613C0,-10.734 -0.009,-10.856 0.001,-10.976C0.025,-11.267 -0.115,-11.435 -0.388,-11.354C-0.525,-11.313 -0.705,-11.105 -0.708,-10.97C-0.734,-9.881 -0.724,-8.791 -0.724,-7.701C-0.724,-5.418 -0.716,-3.135 -0.729,-0.852C-0.735,0.377 -1.727,1.183 -2.857,0.91C-3.646,0.719 -4.146,0.043 -4.147,-0.868C-4.153,-3.739 -4.15,-6.61 -4.149,-9.481C-4.149,-10.536 -4.168,-11.591 -4.144,-12.646C-4.097,-14.672 -2.932,-16.181 -1.03,-16.661C-0.601,-16.77 -0.141,-16.791 0.306,-16.792C3.28,-16.803 6.256,-16.801 9.23,-16.797C12.036,-16.792 13.701,-15.115 13.703,-12.297C13.705,-8.492 13.708,-4.687 13.7,-0.882C13.698,0.38 12.699,1.198 11.55,0.905C10.771,0.707 10.279,0.028 10.278,-0.89C10.274,-4.211 10.274,-7.532 10.279,-10.853C10.28,-11.159 10.27,-11.44 9.856,-11.358C9.743,-11.336 9.609,-11.203 9.568,-11.089C9.518,-10.952 9.554,-10.782 9.554,-10.627C9.554,-1.149 9.561,8.33 9.536,17.808C9.534,18.349 9.382,18.951 9.114,19.418C8.663,20.207 7.67,20.511 6.797,20.288C5.918,20.063 5.282,19.336 5.172,18.412C5.14,18.138 5.131,17.86 5.131,17.584C5.128,12.153 5.13,6.722 5.124,1.291C5.124,1.049 5.254,0.665 4.783,0.714C4.652,0.728 4.495,0.892 4.432,1.025C4.371,1.152 4.415,1.33 4.415,1.486C4.415,6.882 4.416,12.278 4.411,17.674C4.411,18.019 4.407,18.373 4.331,18.706C4.095,19.733 3.127,20.408 2.045,20.336C0.985,20.267 0.12,19.441 0.017,18.391C-0.006,18.168 0,17.942 0,17.717Z" style="fill:rgb(194,10,48);fill-rule:nonzero;"/>
        </g>
        <g transform="matrix(5.93692,0,0,5.93692,170.982,261.821)">
            <path d="M0,-16.681C1.102,-13.053 2.198,-9.446 3.321,-5.749C2.627,-5.749 2.026,-5.723 1.429,-5.758C1,-5.783 0.866,-5.649 0.87,-5.212C0.89,-2.912 0.881,-0.613 0.878,1.687C0.877,1.911 0.872,2.138 0.836,2.358C0.723,3.053 0.159,3.519 -0.543,3.516C-1.224,3.514 -1.778,3.065 -1.899,2.395C-1.942,2.159 -1.949,1.914 -1.949,1.673C-1.953,-0.575 -1.952,-2.823 -1.952,-5.07L-1.952,-5.714L-2.673,-5.714L-2.673,-5.084C-2.673,-2.75 -2.668,-0.415 -2.676,1.919C-2.679,2.881 -3.191,3.477 -4.009,3.514C-4.882,3.553 -5.489,2.936 -5.495,1.961C-5.507,0.128 -5.498,-1.705 -5.499,-3.538L-5.499,-5.74L-8.027,-5.74C-6.902,-9.446 -5.808,-13.053 -4.706,-16.681C-5.203,-16.84 -5.474,-16.759 -5.622,-16.245C-6.076,-14.67 -6.577,-13.108 -7.054,-11.539C-7.182,-11.122 -7.381,-10.712 -7.832,-10.664C-8.175,-10.627 -8.6,-10.709 -8.881,-10.897C-9.266,-11.155 -9.313,-11.615 -9.172,-12.07C-8.616,-13.867 -8.081,-15.671 -7.5,-17.459C-7.337,-17.961 -7.082,-18.446 -6.797,-18.892C-6.235,-19.769 -5.424,-20.208 -4.355,-20.186C-3.076,-20.159 -1.795,-20.148 -0.517,-20.188C0.979,-20.234 1.956,-19.692 2.548,-18.067C3.262,-16.107 3.828,-14.092 4.432,-12.093C4.644,-11.393 4.323,-10.795 3.734,-10.634C3.105,-10.462 2.58,-10.758 2.352,-11.474C1.85,-13.053 1.359,-14.636 0.893,-16.225C0.759,-16.682 0.545,-16.871 0,-16.681" style="fill:rgb(194,10,48);fill-rule:nonzero;"/>
        </g>
        <g transform="matrix(-5.93692,0.00271464,0.00271464,5.93692,71.6298,56.2873)">
            <path d="M0.01,-6.561C-1.803,-6.561 -3.307,-5.053 -3.281,-3.262C-3.254,-1.479 -1.764,-0.001 0.01,-0C1.792,0 3.267,-1.465 3.291,-3.263C3.317,-5.067 1.831,-6.561 0.01,-6.561" style="fill:rgb(194,10,48);fill-rule:nonzero;"/>
        </g>
        <g transform="matrix(-5.9368,0.0389328,0.0389328,5.9368,236.734,56.3413)">
            <path d="M0.017,-6.562C-1.801,-6.563 -3.284,-5.075 -3.27,-3.265C-3.255,-1.486 -1.768,-0.011 0.017,-0.005C1.807,0.001 3.323,-1.527 3.305,-3.317C3.285,-5.112 1.818,-6.561 0.017,-6.562" style="fill:rgb(194,10,48);fill-rule:nonzero;"/>
        </g>
        <g transform="matrix(5.93692,0,0,5.93692,175.243,118.081)">
            <path d="M0,2.22C0.04,1.827 0.096,1.436 0.117,1.042C0.136,0.703 0.051,0.401 -0.378,0.409C-0.811,0.418 -0.784,0.704 -0.761,1.03C-0.661,2.377 -1.78,3.54 -3.115,3.5C-4.452,3.459 -5.486,2.292 -5.348,0.973C-5.319,0.704 -5.255,0.418 -5.655,0.41C-6.006,0.403 -6.146,0.641 -6.132,0.956C-6.113,1.38 -6.062,1.803 -6.071,2.243C-6.518,1.599 -6.991,0.962 -6.987,0.136C-6.983,-0.748 -6.319,-1.189 -5.493,-0.804C-4.973,-0.562 -4.597,-0.539 -4.081,-0.851C-3.31,-1.32 -2.475,-1.211 -1.739,-0.69C-1.445,-0.481 -1.222,-0.438 -0.905,-0.624C-0.398,-0.921 0.146,-1.138 0.676,-0.676C1.054,-0.347 1.086,0.362 0.774,1.021C0.573,1.447 0.35,1.862 0.135,2.282L0,2.22Z" style="fill:rgb(194,10,48);fill-rule:nonzero;"/>
        </g>
    </g>
</svg>
