<?xml version="1.0" encoding="utf-8"?>
<!-- Generator: Adobe Illustrator 23.0.6, SVG Export Plug-In . SVG Version: 6.00 Build 0)  -->
<svg version="1.1" id="Capa_1" xmlns="http://www.w3.org/2000/svg" xmlns:xlink="http://www.w3.org/1999/xlink" x="0px" y="0px"
	 viewBox="0 0 280 120" style="enable-background:new 0 0 280 120;" xml:space="preserve">
<style type="text/css">
	.st0{fill:#FFFFFF;}
	.st1{fill:#C10230;}
	.st2{fill:#00ADEE;}
</style>
<g>
	<path class="st0" d="M10,42.95c0,0,117.34-64.36,204.92-33.25c86.62,30.77,48.43,90.89,35.39,99.35
		c-13.04,8.46-34.07,18.2-81.58-3.1C121.23,84.64,117.46,51.97,10,42.95"/>
	<g>
		<g>
			<path class="st1" d="M69.99,22.55l7.7,0.61c4.24,0.34,5.67,2.04,4.41,6.28l-0.94,3.13c-1.2,4.08-3.12,5.91-7.36,5.57l-8.25-0.66
				L69.99,22.55z M70.64,34.34l3.55,0.28c1.5,0.12,2.33-0.81,2.8-2.39l0.94-3.13c0.56-1.93,0.05-2.38-1.37-2.49l-3.55-0.28
				L70.64,34.34z"/>
		</g>
		<g>
			<path class="st1" d="M88.33,30.36l6.47,0.69l-0.89,2.75l-6.47-0.69l-0.94,2.88l7.03,0.75l-1.06,3.24L81.39,38.8l4.84-14.81
				l10.93,1.17l-1.04,3.24l-6.89-0.74L88.33,30.36z"/>
		</g>
		<g>
			<path class="st1" d="M100.12,37.39l6.31,0.82l-1.2,3.41l-10.34-1.34l5.17-14.7l4.03,0.52L100.12,37.39z"/>
		</g>
		<g>
			<path class="st1" d="M110.74,42.44l-4.02-0.58l5.39-14.62l4.02,0.58L110.74,42.44z"/>
		</g>
		<g>
			<path class="st1" d="M128.01,39.35l-0.15,0.43c-0.63,1.59-1.19,3.02-3,3.9c-1.77,0.86-3.43,0.57-5.18,0.29
				c-4.09-0.67-7.01-1.35-4.95-6.66l1.46-3.76c1.88-4.8,4.82-5.06,9.23-4.34c4.13,0.67,5.89,1.39,4.27,5.76l-0.21,0.56l-4.13-0.68
				l0.21-0.56c0.38-1.32-0.53-1.57-1.89-1.79c-2.29-0.37-2.78,0.27-3.57,2.34l-0.88,2.27c-0.85,2.17-1.07,3.02,1.34,3.41
				c1.67,0.27,2.51,0.29,3.18-1.42l0.15-0.43L128.01,39.35z"/>
		</g>
		<g>
			<path class="st1" d="M131.7,45.93l-4-0.72l5.9-14.42l4,0.72L131.7,45.93z"/>
		</g>
		<g>
			<path class="st1" d="M135.75,41.1l1.74-4.05c1.89-4.41,5.14-4.67,9.19-3.87c4.04,0.81,6.54,2.22,4.65,6.63l-1.74,4.05
				c-1.89,4.41-5.12,4.68-9.16,3.87C136.37,46.92,133.85,45.51,135.75,41.1z M145.66,42.62l1.39-3.23c0.9-2.12,0.27-2.48-1.81-2.89
				c-2.07-0.41-2.86-0.34-3.81,1.77l-1.39,3.23c-0.86,2.15-0.27,2.5,1.8,2.91S144.74,44.76,145.66,42.62z"/>
		</g>
		<g>
			<path class="st1" d="M159.9,42.29c4.27,1.29,5.12,2.06,3.62,5.31c-1.07,2.34-2.03,4.67-8.57,3.2c-3.79-0.85-6.27-1.49-4.14-6.14
				l3.81,0.85c-0.68,1.47-0.18,1.75,1.76,2.19c1.86,0.42,2.52,0.44,3.06-0.75c0.57-1.23,0.34-1.26-1.47-1.79l-0.84-0.25
				c-3.55-1.07-5.72-1.53-3.85-5.59c1.87-4.06,4.39-3.79,8.28-2.91c3.25,0.73,6,1.41,4.2,5.32l-0.28,0.58l-3.81-0.85
				c0.68-1.45,0.05-1.59-1.54-1.95c-2.14-0.48-2.52-0.11-2.88,0.69c-0.52,1.13,0.04,1.3,1.06,1.61L159.9,42.29z"/>
		</g>
		<g>
			<path class="st1" d="M165.16,47.41l1.93-3.96c2.1-4.31,5.36-4.42,9.36-3.42c4,1,6.43,2.53,4.33,6.84l-1.93,3.96
				c-2.1,4.31-5.34,4.43-9.34,3.43S163.06,51.72,165.16,47.41z M174.99,49.4l1.54-3.16c1-2.08,0.38-2.46-1.67-2.97
				s-2.83-0.48-3.89,1.58l-1.54,3.16c-0.97,2.11-0.39,2.48,1.66,2.99C173.14,51.52,173.97,51.49,174.99,49.4z"/>
		</g>
		<g>
			<path class="st1" d="M196.34,51.8c4.19,1.54,4.99,2.37,3.3,5.52c-1.21,2.28-2.3,4.54-8.75,2.68c-3.73-1.07-6.17-1.86-3.77-6.37
				l3.75,1.08c-0.77,1.43-0.29,1.74,1.63,2.29c1.84,0.53,2.5,0.59,3.1-0.56c0.64-1.19,0.42-1.23-1.36-1.87l-0.82-0.3
				c-3.48-1.28-5.62-1.87-3.51-5.81c2.11-3.94,4.61-3.52,8.44-2.41c3.2,0.92,5.9,1.76,3.88,5.56l-0.31,0.57l-3.75-1.08
				c0.77-1.41,0.14-1.59-1.42-2.04c-2.11-0.61-2.51-0.26-2.92,0.51c-0.59,1.1-0.04,1.3,0.96,1.67L196.34,51.8z"/>
		</g>
		<g>
			<path class="st1" d="M203.75,60.97l-2.03,2.11l-4.03-1.27l12.01-12.21l5.89,1.85l-3.23,14.96l-3.96-1.24l0.55-2.58L203.75,60.97z
				 M211.21,53.28l-0.04-0.01l-5.1,5.32l3.61,1.13L211.21,53.28z"/>
		</g>
		<g>
			<path class="st1" d="M221.18,53.33l7.58,2.59c2.87,0.98,4.26,2.05,2.53,4.99c-1.03,1.69-2.05,2.67-4.12,2.31l-0.09,0.14
				c2.07,0.86,1.71,2.17,0.71,3.85c-1.96,3.28-3.87,3.17-6.93,2.12l-7.65-2.61L221.18,53.33z M218.79,65.11l2.9,0.99
				c1.25,0.43,1.93,0.34,2.58-0.75c0.66-1.11,0.31-1.42-0.94-1.84l-2.98-1.02L218.79,65.11z M221.84,60l2.77,0.95
				c1.35,0.46,1.79,0.35,2.44-0.72c0.49-0.8,0.52-1.15-0.52-1.55l-3.23-1.1L221.84,60z"/>
		</g>
		<g>
			<path class="st1" d="M229.77,66.64l2.35-3.72c2.56-4.06,5.81-3.81,9.68-2.38s6.11,3.21,3.55,7.27L243,71.53
				c-2.56,4.06-5.79,3.82-9.66,2.39C229.47,72.49,227.21,70.7,229.77,66.64z M239.32,69.7l1.88-2.97c1.22-1.95,0.65-2.4-1.33-3.14
				c-1.98-0.73-2.77-0.78-4.04,1.15l-1.88,2.97c-1.19,1.99-0.66,2.42,1.33,3.16C237.26,71.6,238.08,71.66,239.32,69.7z"/>
		</g>
		<g>
			<path class="st1" d="M250.3,63.94l7.29,2.91c3.24,1.36,4.42,2.64,2.25,5.87c-1.43,2.16-2.29,3.42-5.35,2.92l-0.1,0.14
				c1.53,0.67,2,1.85,1.02,3.32l-1.74,2.61l-3.78-1.51l1.21-1.82c0.69-0.95,0.67-1.79-0.46-2.24l-2.93-1.17l-2.29,3.44l-3.78-1.51
				L250.3,63.94z M252.65,73.13c1.62,0.65,1.94,0.07,2.92-1.39c0.77-1.16,0.67-1.62-0.58-2.11l-2.93-1.17l-2.34,3.51L252.65,73.13z"
				/>
		</g>
	</g>
	<g>
		<g>
			<path class="st2" d="M117.52,54.84c1.5-4.02,3.54-4.1,7.39-3.53c3.37,0.5,5.74,1,4.03,5.07l-1.77-0.26
				c0.9-2.65,0.42-2.82-2.89-3.31c-3.45-0.51-4.08-0.16-4.86,1.93c-1.07,2.88,0.43,2.84,3.31,3.35c3.62,0.75,5.53,0.92,4.01,5.01
				c-1.59,4.26-3.72,4.1-7.64,3.52c-3.97-0.59-5.85-1.35-3.89-5.67l1.77,0.26c-1.28,3.31-0.61,3.41,2.69,3.9
				c3.32,0.49,4.24,0.63,5.34-2.33c1.07-2.88-0.44-2.59-3.2-3.23C118.81,58.85,116.04,58.82,117.52,54.84z"/>
		</g>
		<g>
			<path class="st2" d="M128.47,67.97l-1.76-0.29l5.89-14.98l1.76,0.29L128.47,67.97z"/>
		</g>
		<g>
			<path class="st2" d="M144.13,70.82l-2.87-0.54l-3.07-15.1l-0.04-0.01l-5.62,13.47l-1.75-0.33l6.2-14.86l2.89,0.54l3,15.2
				l0.04,0.01l5.66-13.57l1.75,0.33L144.13,70.82z"/>
		</g>
		<g>
			<path class="st2" d="M156.77,73.72c-2.8-0.65-3.67-2.71-2.31-5.62l2.64-5.64c1.93-4.12,4.83-3.97,8.55-3.1l1.43,0.33
				c3.21,0.75,3.57,2.3,2.23,5.17l-0.22,0.47l-1.74-0.4l0.19-0.41c0.96-2.04,0.86-2.9-1.39-3.43l-0.98-0.23
				c-3.6-0.84-5.06-0.72-6.31,1.94l-1.88,4c-1.56,3.32-2.11,4.85,0.79,5.53l2.07,0.48c2.78,0.65,3.81,0.48,4.79-1.6l0.54-1.17
				l1.74,0.4l-0.64,1.36c-1.56,3.34-3.99,3.19-7.05,2.48L156.77,73.72z"/>
		</g>
		<g>
			<path class="st2" d="M169.07,73.12l-2.71,2.75l-1.81-0.47l12.76-12.95l2.44,0.63l-1.52,15.88l-1.79-0.47l0.33-3.36L169.07,73.12z
				 M177.9,64.11l-7.69,7.78l6.75,1.76L177.9,64.11z"/>
		</g>
		<g>
			<path class="st2" d="M181.76,78.34l7.71,2.21l-0.76,1.42l-9.43-2.7l7.56-14.21l1.72,0.49L181.76,78.34z"/>
		</g>
		<g>
			<path class="st2" d="M204.15,70.16c3.73,1.21,4.21,2.73,2.23,6.24l-2.81,4.99c-1.87,3.31-3.84,4.14-7.45,3.01l-2.02-0.63
				c-3.61-1.13-4.19-2.76-2.33-6.08l2.81-4.99c1.98-3.52,3.78-4.32,7.54-3.18L204.15,70.16z M201.33,70.93
				c-2.53-0.79-3.51-0.42-5.05,2.31l-2.81,4.99c-1.57,2.79-0.78,3.43,1.42,4.14l2.02,0.63c2.21,0.67,3.39,0.64,4.96-2.15l2.81-4.99
				c1.54-2.73,1.2-3.52-1.32-4.31L201.33,70.93z"/>
		</g>
		<g>
			<path class="st2" d="M204.37,86.94l-1.69-0.58l8.28-13.81l6.87,2.36c3.22,1.1,4.13,2.42,2.24,5.56
				c-1.16,1.93-2.26,3.29-4.79,2.75l-0.02,0.04c1.6,0.68,1.81,1.82,0.91,3.31l-2.2,3.66l-1.69-0.58l1.75-2.93
				c1.05-1.75,1.1-2.75-0.94-3.45l-5.42-1.86L204.37,86.94z M213.71,81.82c2.65,0.82,3.41,0.19,4.78-2.09
				c1.06-1.77,1.2-2.52-1.46-3.43l-5.2-1.79l-3.31,5.52L213.71,81.82z"/>
		</g>
		<g>
			<path class="st2" d="M217.74,91.63l-1.68-0.61l8.54-13.65l1.68,0.61L217.74,91.63z M229.14,75.36l-4.31,0.66l-0.07-0.94
				l4.23-0.99L229.14,75.36z"/>
		</g>
		<g>
			<path class="st2" d="M223.46,90.18l-3,2.42l-1.74-0.67l14.13-11.44l2.35,0.9l-3.29,15.6l-1.72-0.66l0.71-3.31L223.46,90.18z
				 M233.24,82.23l-8.51,6.87l6.51,2.5L233.24,82.23z"/>
		</g>
		<g>
			<path class="st2" d="M238.71,87.62c2.44-3.53,4.44-3.11,8.03-1.62c3.14,1.31,5.32,2.37,2.66,5.9l-1.65-0.68
				c1.52-2.35,1.09-2.64-1.99-3.92c-3.22-1.34-3.92-1.15-5.19,0.69c-1.74,2.53-0.28,2.86,2.39,4.06c3.33,1.61,5.13,2.25,2.66,5.84
				c-2.58,3.75-4.61,3.06-8.27,1.54c-3.7-1.54-5.34-2.74-2.39-6.45l1.65,0.69c-2.05,2.9-1.43,3.16,1.65,4.44
				c3.1,1.29,3.96,1.64,5.75-0.95c1.74-2.53,0.21-2.62-2.31-3.92C238.98,91.82,236.3,91.12,238.71,87.62z"/>
		</g>
	</g>
</g>
</svg>
