<?xml version="1.0" encoding="utf-8"?>
<!-- Generator: Adobe Illustrator 23.0.6, SVG Export Plug-In . SVG Version: 6.00 Build 0)  -->
<svg version="1.1" id="Capa_1" xmlns="http://www.w3.org/2000/svg" xmlns:xlink="http://www.w3.org/1999/xlink" x="0px" y="0px"
	 viewBox="0 0 235 57" style="enable-background:new 0 0 235 57;" xml:space="preserve">
<style type="text/css">
	.st0{fill:#FFFFFF;}
	.st1{fill:#C10230;}
	.st2{fill:#231F20;}
</style>
<g>
	<g>
		<circle class="st0" cx="217.81" cy="14.92" r="3.49"/>
		<path class="st1" d="M217.82,17.29c-1.31,0-2.37-1.06-2.37-2.37c0-1.31,1.06-2.37,2.37-2.37c1.31,0,2.37,1.06,2.37,2.37
			C220.19,16.23,219.13,17.29,217.82,17.29 M217.82,12.98c-1.06,0-1.9,0.85-1.9,1.93c0,1.08,0.84,1.93,1.9,1.93
			c1.06,0,1.9-0.85,1.9-1.93C219.71,13.84,218.88,12.98,217.82,12.98 M218.31,16.2l-0.53-1.01h-0.33v1.01h-0.47v-2.56h0.96
			c0.48,0,0.83,0.36,0.83,0.79c0,0.36-0.22,0.6-0.5,0.69l0.57,1.08H218.31z M217.89,14.03h-0.43v0.77h0.43
			c0.25,0,0.42-0.17,0.42-0.39C218.31,14.2,218.14,14.03,217.89,14.03"/>
	</g>
	<g>
		<path class="st0" d="M201.46,27.62l11.26-11.85c0.87-0.92,1.11-2.27,0.61-3.43c-0.5-1.16-1.64-1.92-2.91-1.92h-9.47
			c-0.88,0-1.71,0.36-2.31,1l-5.51,5.88l-4.53-5.65c-0.6-0.75-1.51-1.19-2.47-1.19h-10.52c-0.91,0-1.76,0.39-2.36,1.05
			c-1.23-0.42-2.59-0.64-4.1-0.64l-11.07-0.02c-3.26,0.03-6.98,1.09-9.78,4.82c-1.67-2.28-4.53-4.24-9.4-5.02
			c-0.17-0.03-0.33-0.04-0.5-0.04h-20.55c-0.3,0-0.59,0.06-0.87,0.14c-0.22-0.05-0.44-0.07-0.67-0.07H96c-0.05,0-0.1,0-0.15,0
			c-2.39,0.12-5.01,0.75-7.36,2.46c-0.12-0.54-0.35-1.04-0.73-1.46c-0.6-0.66-1.45-1.04-2.35-1.04c0,0-8.19,0.02-8.19,0.02
			c-1.62,0-2.97,1.23-3.14,2.84l-1.82,17.67H65.3l1.87-17c0.1-0.89-0.19-1.79-0.79-2.46c-0.6-0.67-1.46-1.05-2.36-1.05h-6.09
			l0.21-2.04c0.09-0.89-0.2-1.78-0.8-2.44c-0.6-0.66-1.45-1.04-2.35-1.04c0,0-23.02,0-23.07,0c-5.08,0.23-8.8,1.34-11.37,3.4
			c-2.59,2.08-4.31,5.33-5.11,9.65c-0.02,0.08-0.03,0.17-0.04,0.26c-0.44,4.31,0.49,7.81,2.78,10.4c0.59,0.67,1.26,1.25,2.03,1.75
			h-2.44c-1.62,0-2.98,1.23-3.15,2.84l-0.9,8.77c-0.09,0.89,0.2,1.78,0.8,2.45c0.6,0.67,1.45,1.05,2.35,1.05h21.36
			c0.02,0,0.03,0,0.05,0c5.31-0.08,9.13-1.17,11.67-3.33c0.79-0.67,1.48-1.45,2.1-2.33c0.44,0.97,1,1.83,1.7,2.57
			c1.94,2.04,4.74,3.08,8.31,3.08l0.3,0h20.07c1.57,0,2.89-1.15,3.12-2.69c1.76,1.58,4.02,2.47,6.76,2.62
			c0.06,0,0.12,0.01,0.18,0.01h20.91c0.26,0,0.5-0.04,0.74-0.1c0.24,0.06,0.49,0.1,0.75,0.1c0,0,8.9-0.02,8.9-0.02
			c1.62,0,2.98-1.23,3.14-2.84l0.62-6.09h2.95l3.19,7.15c0.51,1.14,1.64,1.88,2.89,1.88h9.9c1.06,0,2.05-0.53,2.64-1.42
			c1.34,0.83,3.17,1.48,5.63,1.48h9.16l-0.68,0.67c-0.92,0.9-1.2,2.28-0.71,3.47c0.49,1.18,1.65,1.95,2.92,1.95
			c0.01,0,11.46-0.13,11.46-0.13c0.83-0.01,1.62-0.35,2.21-0.93l11.85-11.93l4.59,5.44c0.6,0.71,1.49,1.12,2.42,1.12h12.1
			c1.24,0,2.37-0.73,2.88-1.86c0.51-1.13,0.32-2.46-0.5-3.39L201.46,27.62z M180.26,28.14c0.11-1.05,0.17-2.04,0.19-2.99l1.91,2.5
			l-2.22,2.18C180.19,29.28,180.23,28.72,180.26,28.14z"/>
		<g>
			<path class="st2" d="M77.22,13.83l-2.12,20.52H64.17c-0.11,0.01-0.22,0.01-0.32,0.01c-1.54,0-2.14-0.87-1.8-2.61l1.97-17.92
				h-7.86l-2.04,19.55c-0.31,6.09,2.33,9.14,7.93,9.14c0.1,0,0.2,0,0.3,0h20.07l2.98-28.71L77.22,13.83z"/>
			<path class="st2" d="M84.88,28.13c-0.93,9.21,1.61,13.98,7.59,14.32h20.91l0.76-7.44l-19.05,0.02c-0.96-0.11-1.47-0.85-1.53-2.21
				l-0.02-1.62l16.63,0.09l0.77-6.88l-16.8-0.02l0.72-2.46c0.28-0.74,1.09-1.11,2.44-1.11c0.1,0,0.19,0,0.29,0.01l18.02-0.02
				l0.72-6.96H96C89.51,14.17,85.81,18.93,84.88,28.13"/>
			<path class="st2" d="M138.42,13.79h-20.55l-2.99,28.67l8.9-0.02l0.92-8.93h7.86l4.03,9.03h9.9l-4.15-9.44
				c3.22-2.35,4.87-5.54,4.96-9.56C147.59,18.04,144.64,14.79,138.42,13.79 M139.4,23.63c-0.25,1.53-1.2,2.3-2.87,2.33l-10.91-0.02
				l0.51-4.97h11C138.9,21.22,139.65,22.11,139.4,23.63"/>
			<path class="st2" d="M167.91,42.6c5.7-0.12,8.77-5.02,9.19-14.7c1.02-9.23-1.62-13.85-7.93-13.85c-0.08,0-0.16,0-0.24,0
				l-10.8-0.02c-6.22,0.05-9.79,4.86-10.7,14.42c-0.98,9.43,1.44,14.14,7.27,14.14h0.05H167.91z M155.13,28.41
				c0.27-2.49,0.65-4.09,1.12-4.8c0.72-1.53,1.93-2.35,3.64-2.49h5.93c1.3,0.12,2.26,0.59,2.87,1.41c0.63,0.78,0.83,2.6,0.58,5.44
				c-0.24,2.85-0.68,4.64-1.32,5.38c-0.53,1.05-1.44,1.64-2.74,1.77l-7.7,0.02c-1.22-0.23-2.02-0.97-2.41-2.23
				C154.85,32.39,154.85,30.89,155.13,28.41"/>
			<polygon class="st1" points="210.43,13.59 200.96,13.59 192.95,22.14 186.14,13.64 175.62,13.64 186.58,27.95 165.43,48.69 
				176.85,48.56 191.14,34.18 197.96,42.26 210.06,42.26 197.18,27.54 			"/>
			<path class="st2" d="M32.06,8.31c-4.34,0.2-7.52,1.1-9.53,2.71c-2,1.61-3.32,4.2-3.98,7.76c-0.35,3.4,0.32,6.07,2.01,7.99
				c1.69,1.92,4.58,2.88,8.65,2.88h9.23c1.92,0,3.29,0.09,4.11,0.28c0.82,0.19,1.29,0.76,1.4,1.7c-0.34,1.19-0.96,1.84-1.88,1.97
				c-0.92,0.12-2.25,0.18-4,0.18h-20.3l-0.9,8.77h21.36c4.5-0.07,7.72-0.92,9.67-2.58c1.95-1.65,3.21-4.21,3.79-7.68
				c0.35-3.47-0.24-6.17-1.77-8.1c-1.53-1.94-4.22-3.01-8.06-3.23h-9.57c-1.55,0-2.69-0.07-3.43-0.21c-0.75-0.14-1.2-0.76-1.37-1.87
				c0.54-0.88,1.17-1.38,1.88-1.5c0.72-0.12,1.74-0.19,3.07-0.19h21.64l0.91-8.88H32.06z"/>
		</g>
	</g>
</g>
</svg>
