<?xml version="1.0" encoding="utf-8"?>
<!-- Generator: Adobe Illustrator 23.0.6, SVG Export Plug-In . SVG Version: 6.00 Build 0)  -->
<svg version="1.1" id="Capa_1" xmlns="http://www.w3.org/2000/svg" xmlns:xlink="http://www.w3.org/1999/xlink" x="0px" y="0px"
	 viewBox="0 0 510 310" style="enable-background:new 0 0 510 310;" xml:space="preserve">
<style type="text/css">
	.st0{fill:#1B75BB;}
	.st1{fill:#C10230;}
	.st2{fill:#FFFFFF;}
</style>
<g>
	<g>
		<path class="st0" d="M69.5,34.74v-6c0-10.52-6.95-16.8-18.58-16.8c-2.9,0-5.52,0.38-7.79,1.13c-0.39,0.13-0.76,0.28-1.14,0.43
			V1.84H3.78V59.2h38.77v-0.4c2.34,0.73,5.06,1.1,8.19,1.1c2.69,0,5.18-0.34,7.41-1.02c2.51-0.76,4.68-1.96,6.47-3.56
			c1.77-1.58,3.15-3.49,4.12-5.66c0.96-2.16,1.45-4.54,1.45-7.07c0-3.04-0.59-5.67-1.75-7.85H69.5z"/>
		<path class="st0" d="M506.32,34.74h1.07v-6c0-10.52-6.95-16.8-18.58-16.8c-2.9,0-5.52,0.38-7.79,1.13
			c-2.34,0.77-4.35,1.89-6.02,3.31c-0.96-0.88-2.02-1.64-3.18-2.25l8.81-13.74h-25.88l-3.66,12.45h-2.02V2.73h-23.15v10.1h-3.72
			v0.02c-2.08-0.58-4.39-0.91-6.95-0.91c-2.9,0-5.52,0.38-7.79,1.13c-2.34,0.77-4.35,1.89-6.01,3.31c-1.62-1.48-3.51-2.6-5.67-3.31
			c-2.27-0.75-4.87-1.13-7.73-1.13c-3.21,0-6.08,0.45-8.54,1.35c-2.83,1.04-5.2,2.73-7.05,5.02c-1.72,2.14-2.96,4.82-3.7,7.97
			c-0.65,2.76-0.96,5.96-0.96,9.76c0,3.71,0.27,6.83,0.84,9.54c0.66,3.19,1.86,5.9,3.54,8.05c0.88,1.12,1.9,2.09,3.03,2.9h-8.78
			v10.14c-0.37-0.03-0.75-0.04-1.13-0.04c-2.4,0-4.66,0.49-6.74,1.45c-1.68,0.78-3.17,1.91-4.43,3.35
			c-0.55-0.55-1.13-1.06-1.77-1.51c-1.86-1.31-4.05-2.21-6.51-2.69c-2-0.39-4.19-0.59-6.5-0.59c-1.64,0-3.4,0.17-5.25,0.51
			c-0.82,0.15-1.61,0.38-2.38,0.64v-0.26h-4.4V59.2h7.62v-1.16c0.51,0.23,1.02,0.44,1.56,0.63c2.46,0.83,5.3,1.24,8.67,1.24
			c6.32,0,11.14-1.71,14.33-5.08c2.58-2.72,4.13-6.37,4.63-10.86h0.49v-9.49c0-3.69-0.34-6.76-1.04-9.39
			c-0.79-2.99-2.08-5.51-3.83-7.5c-1.85-2.1-4.15-3.61-6.84-4.5c-2.27-0.75-4.87-1.13-7.73-1.13c-3.21,0-6.08,0.45-8.54,1.35
			c-0.59,0.21-1.15,0.46-1.7,0.74v-1.2h-30.92h-8.84h-10.39c-1.59-0.59-3.36-0.89-5.3-0.89c-6.03,0-10.72,2.85-13.21,8.04
			c-1.9,3.95-2.82,9.43-2.82,16.77c0,3.76,0.28,6.89,0.84,9.54c0.63,2.97,1.57,5.38,2.85,7.35c1.55,2.39,3.58,4.1,6.04,5.07
			c1.98,0.79,4.19,1.19,6.55,1.19c0.38,0,0.75-0.01,1.13-0.04v6.78h-3.98c-1.64,0-3.23,0.3-4.74,0.89h-10.52V56.54h-8.49
			c0.72-0.52,1.41-1.08,2.01-1.72c2.58-2.72,4.13-6.37,4.63-10.86h0.49v-9.49c0-3.69-0.34-6.76-1.04-9.39
			c-0.79-2.99-2.08-5.51-3.83-7.5c-1.85-2.1-4.15-3.61-6.84-4.5c-2.27-0.75-4.87-1.13-7.73-1.13c-3.21,0-6.08,0.45-8.54,1.35
			c-0.65,0.24-1.28,0.52-1.88,0.82V1.84h-23.15V13.2c-1.96-0.82-4.13-1.25-6.45-1.25c-0.38,0-0.75,0.01-1.13,0.04V1.84h-14.5h-8.65
			h-14.5v11.77c-2.59-1.09-5.67-1.67-9.18-1.67c-2.9,0-5.52,0.38-7.79,1.13c-2.45,0.81-4.56,1.99-6.26,3.5
			c-0.02,0.02-0.03,0.03-0.05,0.05c-1.11-1.02-2.39-1.89-3.84-2.62c-2.77-1.39-6.19-2.07-10.43-2.07c-4.21,0-7.62,0.75-10.43,2.3
			c-1.35,0.75-2.56,1.63-3.63,2.63c-2.67-3.2-6.54-4.93-11.22-4.93c-1.87,0-3.6,0.3-5.18,0.89H74.67v57.36h21.28
			c-0.95,0.84-1.8,1.83-2.54,2.97c-1.3,1.98-2.25,4.37-2.91,7.31c-0.6,2.66-0.89,5.77-0.89,9.51c0,7.4,0.93,12.88,2.85,16.76
			c2.5,5.06,7.19,7.85,13.19,7.85c1.75,0,3.37-0.23,4.84-0.7h19.69v-1.25c0.56,0.26,1.14,0.51,1.75,0.71
			c2.46,0.83,5.3,1.24,8.67,1.24c5.67,0,10.13-1.39,13.29-4.11c3.2,2.75,7.69,4.11,13.73,4.11c2.69,0,5.18-0.34,7.41-1.02
			c0.63-0.19,1.24-0.41,1.83-0.66v0.98h30.92h8.84h14.31v-0.48c1.85,0.77,3.93,1.18,6.21,1.18c1.75,0,3.37-0.23,4.84-0.7h10.54h9.15
			h14c0,0,0-1.49,0-3.72c1.35,1.48,3.01,2.62,4.98,3.37c1.88,0.71,3.98,1.05,6.43,1.05c1.67,0,3.26-0.23,4.75-0.7h23.51
			c1.28,0.13,2.7,0.19,4.33,0.19c1.07,0,2.19-0.04,3.34-0.11c0.91-0.06,1.82-0.08,2.73-0.08h3.48c1.59,0.46,3.34,0.7,5.31,0.7
			c1.67,0,3.26-0.23,4.75-0.7h20.94c1.5,0.46,3.12,0.7,4.86,0.7c1.75,0,3.37-0.23,4.84-0.7h19.69v-1.3
			c0.03,0.01,0.05,0.03,0.08,0.04c2.75,1.31,6.13,1.95,10.34,1.95c4.17,0,7.55-0.72,10.34-2.19c2.86-1.52,5.1-3.62,6.66-6.25
			c1.39-2.34,2.31-5.02,2.73-7.96c0.35-2.43,0.53-4.94,0.53-7.46c0-2.73-0.15-5.34-0.45-7.75c-0.37-2.97-1.23-5.67-2.58-8.01
			c-1.54-2.68-3.83-4.79-6.79-6.28c-2.77-1.39-6.19-2.07-10.43-2.07c-4.2,0-7.61,0.75-10.42,2.3v-9.09
			c4.94-0.23,8.88-1.59,11.75-4.06c3.2,2.75,7.69,4.11,13.73,4.11c2.69,0,5.18-0.34,7.41-1.02c2.5-0.76,4.68-1.95,6.46-3.55
			c0.45,0.54,0.94,1.04,1.5,1.47c1.63,1.26,3.61,2.05,5.89,2.33c1.46,0.18,3.12,0.27,5.07,0.27c1.07,0,2.19-0.04,3.34-0.11
			c0.91-0.06,1.82-0.08,2.73-0.08h6v-0.38c2.34,0.72,5,1.08,8.13,1.08c5.67,0,10.13-1.39,13.29-4.11c3.2,2.75,7.69,4.11,13.73,4.11
			c2.69,0,5.18-0.34,7.41-1.02c2.51-0.76,4.68-1.96,6.47-3.56c1.77-1.58,3.15-3.49,4.12-5.66c0.96-2.16,1.45-4.54,1.45-7.07
			C508.08,39.56,507.49,36.92,506.32,34.74z M304.18,59.12v8.41h-0.15v-8.46C304.08,59.09,304.13,59.11,304.18,59.12z M232.17,58.67
			c1.87,0.63,3.96,1.01,6.33,1.16v6.85c-0.37-0.03-0.75-0.04-1.13-0.04c-2.29,0-4.46,0.46-6.45,1.33v-9.79
			C231.32,58.36,231.74,58.52,232.17,58.67z M110.14,55.29c0.5,0.45,1.03,0.86,1.59,1.25h-2.86
			C109.31,56.16,109.74,55.74,110.14,55.29z M167.79,66.64c-2.9,0-5.52,0.38-7.79,1.13c-2.34,0.77-4.35,1.89-6.01,3.31
			c-1.62-1.48-3.51-2.6-5.67-3.31c-2.27-0.75-4.87-1.13-7.73-1.13c-3.21,0-6.08,0.45-8.54,1.35c-0.65,0.24-1.28,0.52-1.88,0.82
			v-9.46c1.71-0.36,3.25-0.91,4.64-1.65c1.31-0.69,2.49-1.52,3.53-2.45c0.06,0.06,0.11,0.12,0.17,0.17
			c3.23,3.01,7.86,4.47,14.16,4.47c2.69,0,5.18-0.34,7.41-1.02c0.68-0.21,1.33-0.45,1.95-0.72v1.04h14.5h0.31v9.06
			C174.27,67.21,171.24,66.64,167.79,66.64z M206.8,67.31c-1.58-0.44-3.24-0.67-4.94-0.67c-0.62,0-1.25,0.04-1.87,0.12v-6.9
			c0.35,0.02,0.7,0.04,1.07,0.04c2.27,0,4.36-0.4,6.21-1.18v0.48h0.5v8.44C207.45,67.53,207.13,67.41,206.8,67.31z M97.82,59.87
			c0.37,0.02,0.75,0.04,1.13,0.04c2.36,0,4.57-0.42,6.57-1.26c0.52-0.22,1.02-0.48,1.5-0.76v8.8c-0.37-0.03-0.75-0.04-1.13-0.04
			c-2.4,0-4.66,0.49-6.74,1.45c-0.46,0.21-0.9,0.46-1.33,0.72V59.87z"/>
	</g>
	<g>
		<path class="st1" d="M282.43,191.03h3.45v-6c0-6.51-1.74-11.53-5.16-14.91c-3.4-3.36-8.5-5.07-15.15-5.07
			c-6.51,0-11.61,1.82-15.16,5.39c-1.19,1.2-2.17,2.57-2.96,4.09l-2.04-8.59h-18.2h-5.8H197.7h-11.26h-12.27v1.64
			c-3.09-1.67-6.98-2.53-11.66-2.53c-4.29,0-7.95,0.8-10.98,2.36v-1.47h-38.21v1.71c-0.81-0.45-1.65-0.86-2.56-1.2
			c-2.48-0.92-5.42-1.39-8.72-1.39c-3.74,0-7.03,0.57-9.76,1.68c-0.7,0.29-1.37,0.62-2.02,0.99v-1.79H60.15h-8.1H16.92v10.8H0.68
			v22.04h0.84l-0.96,13.93v21.2h22.78V223.3h28.71h8.1h30.67v-1.4c0.36,0.17,0.73,0.34,1.12,0.49c2.79,1.09,6.1,1.62,10.11,1.62
			c2.3,0,4.58-0.25,6.76-0.75c1.61-0.37,3.12-0.98,4.53-1.77v1.83h38.77v-0.83c0.83,0.31,1.69,0.58,2.6,0.78
			c2.25,0.49,4.82,0.74,7.63,0.74c4.62,0,8.58-0.81,11.85-2.38v1.68H195h2.71H208h10.53h14.29l0.59-3.96l0.59,3.96h23.99
			c2.2,0.46,4.68,0.7,7.4,0.7c6.47,0,11.66-1.55,15.43-4.61c4.14-3.37,6.24-8.47,6.24-15.17c0-3.75-0.71-6.97-2.12-9.56
			C284.21,193.32,283.38,192.11,282.43,191.03z"/>
		<path class="st1" d="M509.44,165.94h-10.53h-12.26h-38.62c-2.15-0.58-4.52-0.89-7.13-0.89c-3.74,0-7.03,0.6-9.8,1.79
			c-2.6,1.11-4.79,2.8-6.55,4.99c-0.14-0.17-0.26-0.34-0.4-0.5c-1.6-1.79-3.65-3.17-6.09-4.1c-2.23-0.85-4.83-1.29-7.74-1.29h-15.22
			h-8.78H365.5h-8.59h-33.4v1.61c-3.08-1.65-6.95-2.5-11.6-2.5c-6.51,0-11.61,1.82-15.16,5.39c-3.54,3.57-5.34,8.54-5.34,14.77
			c0,3.66,0.69,6.8,2.05,9.32c0.65,1.2,1.39,2.3,2.22,3.29h-4.83v7.59c0,3.19,0.47,5.89,1.44,8.25c1.05,2.57,2.64,4.7,4.71,6.34
			c1.97,1.56,4.36,2.65,7.08,3.25c2.25,0.49,4.82,0.74,7.63,0.74c6.47,0,11.66-1.55,15.43-4.61c0.47-0.38,0.9-0.79,1.31-1.21
			c0.22,0.25,0.42,0.51,0.65,0.75c2.04,2.06,4.57,3.47,7.53,4.21c2.34,0.58,4.99,0.87,7.85,0.87c2.92,0,5.57-0.3,7.9-0.88
			c1.63-0.41,3.14-1.04,4.5-1.87v2.04h29.43h9.34H430v-1.5c0.41,0.2,0.83,0.39,1.26,0.57c2.72,1.08,5.97,1.63,9.65,1.63
			c2.36,0,4.52-0.25,6.5-0.7h25.69l0.09-0.28l0.09,0.28h13.61h12.92h9.49v-22.04h-0.94l1.06-13.91V165.94z M486.76,194.25l0.33-0.76
			l0.12,1.76L486.76,194.25z"/>
	</g>
	<g>
		<path class="st2" d="M278.33,264.6c-1.34-1.23-2.92-2.08-4.67-2.54c-1.31-0.35-2.73-0.52-4.21-0.52c-1.6,0-3.1,0.24-4.48,0.69
			h-11.52l6.23-9.71H236.1l-0.87,2.95v-1.81h-20.7v8.54c-1.58-0.43-3.34-0.66-5.26-0.66c-2.09,0-4.09,0.22-5.96,0.65
			c-2.23,0.52-4.22,1.54-5.94,3.04c-0.36-0.32-0.72-0.63-1.12-0.9c-1.6-1.12-3.48-1.9-5.59-2.32c-1.65-0.32-3.44-0.48-5.31-0.48
			c-1.37,0-2.83,0.14-4.34,0.42c-0.39,0.07-0.77,0.17-1.15,0.27h-2.54v-7.88h-20.7v7.88h-2.07c-0.29-0.07-0.58-0.16-0.88-0.22
			c-1.65-0.32-3.44-0.48-5.31-0.48c-1.34,0-2.77,0.14-4.25,0.41v-0.41h-7.41c-1.35,0-2.68,0.24-3.93,0.69h-6.59v-8.57h-20.7v7.89
			c-1.11,0.03-2.19,0.21-3.23,0.49v-8.37h-20.7v0h-26.3v47.39h35.49v0h10.97c1.24,0.36,2.58,0.55,4.01,0.55
			c1.43,0,2.76-0.18,3.98-0.55h6.65h9.83h10.87v-1.4c0.64,0.4,1.32,0.76,2.06,1.04c1.59,0.6,3.44,0.9,5.47,0.9
			c1.37,0,2.67-0.18,3.9-0.55h11.03l7.38,0.03c0.94,0.08,1.98,0.12,3.11,0.12c0.85,0,1.76-0.03,2.68-0.08
			c0.73-0.04,1.4-0.06,2.06-0.06h2.47c1.32,0.36,2.77,0.55,4.35,0.55c1.37,0,2.67-0.18,3.9-0.55h11.03l6.8,0.03
			c1.71,0.34,3.56,0.52,5.52,0.52c2.09,0,3.99-0.23,5.7-0.69v0.14h20.7v-0.37c1.93,0.61,4.16,0.92,6.76,0.92
			c2.52,0,4.7-0.33,6.62-0.98v0.43h33.66v-26.22c0-2.2-0.3-4.07-0.94-5.73C280.64,267.3,279.64,265.8,278.33,264.6z"/>
		<path class="st2" d="M445.11,261.54c-1.35,0-2.68,0.24-3.93,0.69h-16.42v0.14c-1.84-0.55-3.95-0.83-6.37-0.83
			c-2.58,0-4.81,0.35-6.76,1.06v-8.94h-20.7v8.57h-16.11c-1.68-0.45-3.53-0.69-5.54-0.69c-2.66,0-5.05,0.38-7.11,1.13
			c-1.41,0.51-2.66,1.24-3.79,2.12c-2.25-2.12-5.25-3.25-8.77-3.25c-1.54,0-2.99,0.24-4.3,0.69h-6.57h-9.58h-24.07v0.02
			c-1.71-0.46-3.61-0.72-5.7-0.72c-2.41,0-4.59,0.32-6.48,0.94c-2.09,0.68-3.9,1.7-5.36,3c-1.53,1.36-2.7,2.98-3.47,4.84
			c-0.72,1.74-1.09,3.62-1.09,5.6c0,1.75,0.24,3.36,0.72,4.81h-0.72v6c0,5.79,2.34,9.19,4.3,11.03c2.77,2.59,6.68,3.84,11.95,3.84
			c2.21,0,4.28-0.29,6.17-0.86c1.44-0.44,2.74-1.06,3.91-1.83c1.33,1.11,2.86,1.89,4.59,2.27c1.25,0.28,2.59,0.42,3.97,0.42
			c1.44,0,2.8-0.19,4.06-0.55h7.2v8.57h20.7v-8.03c1.85-0.05,3.59-0.41,5.19-1.08c1.16-0.48,2.2-1.17,3.13-2.02
			c1.16,0.89,2.46,1.59,3.91,2.07c2.07,0.7,4.42,1.04,7.19,1.04c1.99,0,3.81-0.21,5.46-0.62v0.08h16.19h4.51h16.19v-0.37
			c1.93,0.62,4.16,0.92,6.76,0.92c2.41,0,4.52-0.3,6.37-0.9v0.36h20.7v-19.27c0.01,0,7.06,1.24,7.06,1.24v-21.47H445.11z"/>
	</g>
</g>
<g>
	<g>
		<path class="st2" d="M35.99,7.84v9.66H21.31v7.75h13.76v9.28H21.31v9.02h15.24v9.66H9.78V7.84H35.99z"/>
		<path class="st2" d="M47.58,44.44c0.12,0.59,0.33,1.08,0.62,1.46c0.54,0.81,1.32,1.21,2.35,1.21c0.87,0,1.62-0.25,2.26-0.76
			c0.64-0.51,0.96-1.23,0.96-2.16c0-1.02-0.4-1.8-1.21-2.35c-0.81-0.55-1.81-1.04-3-1.46c-1.2-0.42-2.49-0.87-3.87-1.33
			c-1.38-0.47-2.67-1.1-3.87-1.91c-1.2-0.8-2.2-1.87-3-3.21c-0.81-1.33-1.21-3.08-1.21-5.24c0-1.52,0.27-2.93,0.81-4.22
			c0.54-1.29,1.35-2.42,2.45-3.4c1.09-0.97,2.48-1.74,4.15-2.29c1.67-0.55,3.65-0.83,5.92-0.83c8.38,0,12.58,3.6,12.58,10.8h-9.67
			c0-1.48-0.26-2.49-0.77-3.02c-0.52-0.53-1.25-0.79-2.2-0.79c-0.83,0-1.51,0.23-2.04,0.7c-0.54,0.47-0.81,1.12-0.81,1.97
			c0,0.98,0.4,1.71,1.21,2.19c0.81,0.49,1.81,0.92,3,1.3c1.2,0.38,2.49,0.78,3.87,1.21c1.38,0.42,2.67,1.03,3.87,1.81
			c1.2,0.78,2.2,1.84,3,3.18c0.81,1.33,1.21,3.1,1.21,5.3c0,1.69-0.31,3.24-0.93,4.64c-0.62,1.4-1.5,2.6-2.63,3.62
			c-1.14,1.02-2.54,1.78-4.21,2.29s-3.56,0.76-5.67,0.76c-4.67,0-8.02-0.95-10.07-2.86c-2.04-1.91-3.07-4.74-3.07-8.51h9.79
			C47.39,43.21,47.45,43.84,47.58,44.44z"/>
		<path class="st2" d="M91.45,18.83v4.7h0.12c1.28-3.73,3.82-5.59,7.62-5.59c3.72,0,6.32,1.55,7.81,4.64
			c1.49,3.09,2.23,7.81,2.23,14.17c0,3.3-0.25,6.06-0.74,8.26c-0.5,2.2-1.19,3.97-2.08,5.3c-0.89,1.33-1.96,2.27-3.22,2.8
			c-1.26,0.53-2.67,0.79-4.24,0.79c-1.57,0-2.99-0.32-4.25-0.95c-1.26-0.64-2.18-1.84-2.76-3.62h-0.12v14.87H80.67V18.83H91.45z
			 M91.94,40.62c0.08,1.23,0.24,2.21,0.46,2.95c0.23,0.74,0.55,1.26,0.96,1.56c0.41,0.3,0.93,0.44,1.55,0.44
			c0.66,0,1.2-0.15,1.61-0.44c0.41-0.3,0.73-0.81,0.96-1.56c0.23-0.74,0.38-1.73,0.46-2.95c0.08-1.23,0.12-2.77,0.12-4.64
			c0-1.86-0.04-3.4-0.12-4.61s-0.24-2.18-0.46-2.92c-0.23-0.74-0.55-1.26-0.96-1.56c-0.41-0.3-0.95-0.44-1.61-0.44
			c-0.62,0-1.14,0.15-1.55,0.44c-0.41,0.3-0.73,0.82-0.96,1.56c-0.23,0.74-0.38,1.72-0.46,2.92c-0.08,1.21-0.12,2.74-0.12,4.61
			C91.82,37.85,91.86,39.4,91.94,40.62z"/>
		<path class="st2" d="M138.26,42.66c-0.31,2.16-0.96,4.08-1.95,5.75c-0.99,1.67-2.43,3.01-4.31,4c-1.88,0.99-4.39,1.49-7.53,1.49
			c-3.26,0-5.85-0.46-7.75-1.37s-3.33-2.18-4.28-3.81c-0.95-1.63-1.56-3.54-1.83-5.72c-0.27-2.18-0.4-4.52-0.4-7.02
			c0-2.24,0.16-4.45,0.46-6.61c0.31-2.16,0.96-4.09,1.95-5.78c0.99-1.69,2.43-3.06,4.31-4.1c1.88-1.04,4.39-1.56,7.53-1.56
			c3.26,0,5.84,0.48,7.75,1.43c1.9,0.95,3.33,2.26,4.28,3.91s1.56,3.57,1.83,5.75c0.27,2.18,0.4,4.52,0.4,7.02
			C138.73,38.3,138.57,40.5,138.26,42.66z M121.5,41.36c0.08,1.38,0.25,2.47,0.5,3.27c0.25,0.81,0.57,1.36,0.96,1.65
			c0.39,0.3,0.9,0.44,1.52,0.44c0.62,0,1.14-0.15,1.55-0.44c0.41-0.3,0.73-0.85,0.96-1.65c0.23-0.8,0.38-1.9,0.46-3.27
			c0.08-1.38,0.12-3.14,0.12-5.3s-0.04-3.94-0.12-5.34c-0.08-1.4-0.24-2.5-0.46-3.3c-0.23-0.8-0.55-1.35-0.96-1.65
			c-0.41-0.3-0.93-0.44-1.55-0.44c-0.62,0-1.13,0.15-1.52,0.44c-0.39,0.3-0.71,0.85-0.96,1.65c-0.25,0.81-0.41,1.91-0.5,3.3
			c-0.08,1.4-0.12,3.18-0.12,5.34S121.42,39.98,121.5,41.36z"/>
		<path class="st2" d="M149.51,44.44c0.12,0.59,0.33,1.08,0.62,1.46c0.54,0.81,1.32,1.21,2.35,1.21c0.87,0,1.62-0.25,2.26-0.76
			c0.64-0.51,0.96-1.23,0.96-2.16c0-1.02-0.4-1.8-1.21-2.35c-0.81-0.55-1.81-1.04-3-1.46c-1.2-0.42-2.49-0.87-3.87-1.33
			c-1.38-0.47-2.67-1.1-3.87-1.91c-1.2-0.8-2.2-1.87-3-3.21c-0.81-1.33-1.21-3.08-1.21-5.24c0-1.52,0.27-2.93,0.81-4.22
			c0.54-1.29,1.35-2.42,2.45-3.4c1.09-0.97,2.48-1.74,4.15-2.29c1.67-0.55,3.65-0.83,5.92-0.83c8.38,0,12.58,3.6,12.58,10.8h-9.67
			c0-1.48-0.26-2.49-0.77-3.02c-0.52-0.53-1.25-0.79-2.2-0.79c-0.83,0-1.51,0.23-2.04,0.7c-0.54,0.47-0.81,1.12-0.81,1.97
			c0,0.98,0.4,1.71,1.21,2.19c0.81,0.49,1.81,0.92,3,1.3c1.2,0.38,2.49,0.78,3.87,1.21c1.38,0.42,2.67,1.03,3.87,1.81
			c1.2,0.78,2.2,1.84,3,3.18c0.81,1.33,1.21,3.1,1.21,5.3c0,1.69-0.31,3.24-0.93,4.64c-0.62,1.4-1.5,2.6-2.63,3.62
			c-1.14,1.02-2.54,1.78-4.21,2.29s-3.56,0.76-5.67,0.76c-4.67,0-8.02-0.95-10.07-2.86c-2.04-1.91-3.07-4.74-3.07-8.51h9.79
			C149.32,43.21,149.38,43.84,149.51,44.44z"/>
		<path class="st2" d="M179.19,7.84v8.51h-11.15V7.84H179.19z M179.19,18.83V53.2h-11.15V18.83H179.19z"/>
		<path class="st2" d="M193.69,7.84v14.87h0.12c0.58-1.78,1.5-3.02,2.76-3.72c1.26-0.7,2.67-1.05,4.25-1.05
			c1.61,0,3.06,0.29,4.34,0.86s2.35,1.52,3.22,2.86c0.87,1.33,1.54,3.11,2.01,5.34c0.47,2.22,0.71,4.99,0.71,8.29
			c0,6.4-0.74,11.1-2.23,14.1c-1.49,3.01-4.09,4.51-7.81,4.51c-1.98,0-3.57-0.42-4.77-1.27c-1.2-0.85-2.15-2.22-2.85-4.13h-0.12v4.7
			h-10.78V7.84H193.69z M193.81,40.62c0.08,1.23,0.24,2.21,0.46,2.95c0.23,0.74,0.55,1.26,0.96,1.56c0.41,0.3,0.93,0.44,1.55,0.44
			c0.66,0,1.2-0.15,1.61-0.44c0.41-0.3,0.73-0.81,0.96-1.56c0.23-0.74,0.38-1.73,0.46-2.95c0.08-1.23,0.12-2.75,0.12-4.57
			c0-1.86-0.04-3.41-0.12-4.64c-0.08-1.23-0.24-2.21-0.46-2.95c-0.23-0.74-0.55-1.26-0.96-1.56c-0.41-0.3-0.95-0.44-1.61-0.44
			c-0.62,0-1.14,0.15-1.55,0.44c-0.41,0.3-0.73,0.82-0.96,1.56c-0.23,0.74-0.38,1.73-0.46,2.95c-0.08,1.23-0.12,2.77-0.12,4.64
			C193.69,37.87,193.73,39.4,193.81,40.62z"/>
		<path class="st2" d="M224.42,7.84V53.2h-11.15V7.84H224.42z"/>
		<path class="st2" d="M237.74,42.47c0,1.86,0.31,3.1,0.93,3.72c0.62,0.61,1.32,0.92,2.11,0.92c0.99,0,1.77-0.41,2.32-1.24
			c0.56-0.83,0.84-2.4,0.84-4.73h10.04c-0.08,4.24-1.14,7.42-3.16,9.56c-2.02,2.14-5.35,3.21-9.98,3.21c-2.69,0-4.94-0.31-6.75-0.92
			c-1.82-0.61-3.28-1.63-4.4-3.05c-1.12-1.42-1.91-3.27-2.39-5.56c-0.48-2.29-0.71-5.06-0.71-8.32c0-3.3,0.27-6.1,0.81-8.39
			c0.54-2.29,1.38-4.15,2.54-5.59c1.16-1.44,2.63-2.49,4.43-3.15c1.8-0.66,3.96-0.98,6.48-0.98c2.23,0,4.18,0.28,5.86,0.83
			c1.67,0.55,3.08,1.47,4.21,2.76c1.14,1.29,1.98,2.99,2.54,5.08c0.56,2.1,0.84,4.71,0.84,7.85v3.49h-16.54V42.47z M243.23,26.2
			c-0.43-0.85-1.25-1.27-2.45-1.27c-1.16,0-1.95,0.42-2.39,1.27c-0.43,0.85-0.65,2.18-0.65,4v1.52h6.13v-1.52
			C243.88,28.39,243.66,27.05,243.23,26.2z"/>
		<path class="st2" d="M286.76,49.33c-0.58,1.78-1.5,2.99-2.76,3.62c-1.26,0.64-2.67,0.95-4.24,0.95c-1.61,0-3.06-0.25-4.34-0.76
			s-2.35-1.43-3.22-2.76s-1.54-3.11-2.01-5.34c-0.48-2.22-0.71-4.99-0.71-8.29c0-6.35,0.74-11.08,2.23-14.17
			c1.49-3.09,4.09-4.64,7.81-4.64c1.98,0,3.57,0.46,4.77,1.37c1.2,0.91,2.15,2.32,2.85,4.22h0.12v-4.7h10.78v45.36h-11.15V49.33
			H286.76z M286.76,31.38c-0.08-1.21-0.24-2.18-0.46-2.92c-0.23-0.74-0.55-1.26-0.96-1.56c-0.41-0.3-0.93-0.44-1.55-0.44
			c-0.66,0-1.2,0.15-1.61,0.44c-0.41,0.3-0.73,0.82-0.96,1.56c-0.23,0.74-0.38,1.72-0.46,2.92c-0.08,1.21-0.12,2.74-0.12,4.61
			c0,1.86,0.04,3.41,0.12,4.64c0.08,1.23,0.24,2.21,0.46,2.95c0.23,0.74,0.55,1.26,0.96,1.56c0.41,0.3,0.95,0.44,1.61,0.44
			c0.62,0,1.14-0.15,1.55-0.44c0.41-0.3,0.73-0.81,0.96-1.56c0.23-0.74,0.38-1.73,0.46-2.95c0.08-1.23,0.12-2.77,0.12-4.64
			C286.88,34.12,286.84,32.59,286.76,31.38z"/>
		<path class="st2" d="M312.35,18.83v22.68c0,1.44,0.21,2.48,0.62,3.11c0.41,0.64,1.12,0.95,2.11,0.95c0.99,0,1.69-0.32,2.11-0.95
			c0.41-0.64,0.62-1.67,0.62-3.11V18.83h11.15V53.2h-10.78v-4.19h-0.12c-1.41,3.26-4.11,4.89-8.12,4.89c-1.24,0-2.39-0.12-3.44-0.35
			c-1.05-0.23-1.97-0.7-2.76-1.4c-0.79-0.7-1.41-1.65-1.86-2.86c-0.46-1.21-0.68-2.72-0.68-4.54V18.83H312.35z"/>
		<path class="st2" d="M342.09,42.47c0,1.86,0.31,3.1,0.93,3.72c0.62,0.61,1.32,0.92,2.11,0.92c0.99,0,1.77-0.41,2.32-1.24
			c0.56-0.83,0.84-2.4,0.84-4.73h10.04c-0.08,4.24-1.14,7.42-3.16,9.56c-2.02,2.14-5.35,3.21-9.98,3.21c-2.69,0-4.94-0.31-6.75-0.92
			c-1.82-0.61-3.28-1.63-4.4-3.05c-1.12-1.42-1.91-3.27-2.39-5.56c-0.48-2.29-0.71-5.06-0.71-8.32c0-3.3,0.27-6.1,0.81-8.39
			c0.54-2.29,1.38-4.15,2.54-5.59c1.16-1.44,2.63-2.49,4.43-3.15c1.8-0.66,3.96-0.98,6.48-0.98c2.23,0,4.18,0.28,5.86,0.83
			c1.67,0.55,3.08,1.47,4.21,2.76c1.14,1.29,1.98,2.99,2.54,5.08c0.56,2.1,0.84,4.71,0.84,7.85v3.49h-16.54V42.47z M347.57,26.2
			c-0.43-0.85-1.25-1.27-2.45-1.27c-1.16,0-1.95,0.42-2.39,1.27c-0.43,0.85-0.65,2.18-0.65,4v1.52h6.13v-1.52
			C348.22,28.39,348.01,27.05,347.57,26.2z"/>
		<path class="st2" d="M384.97,42.47c0,1.86,0.31,3.1,0.93,3.72c0.62,0.61,1.32,0.92,2.11,0.92c0.99,0,1.77-0.41,2.32-1.24
			c0.56-0.83,0.84-2.4,0.84-4.73h10.04c-0.08,4.24-1.14,7.42-3.16,9.56c-2.02,2.14-5.35,3.21-9.98,3.21c-2.69,0-4.94-0.31-6.75-0.92
			c-1.82-0.61-3.28-1.63-4.4-3.05c-1.12-1.42-1.91-3.27-2.39-5.56c-0.48-2.29-0.71-5.06-0.71-8.32c0-3.3,0.27-6.1,0.81-8.39
			c0.54-2.29,1.38-4.15,2.54-5.59c1.16-1.44,2.63-2.49,4.43-3.15c1.8-0.66,3.96-0.98,6.48-0.98c2.23,0,4.18,0.28,5.86,0.83
			c1.67,0.55,3.08,1.47,4.21,2.76c1.14,1.29,1.98,2.99,2.54,5.08c0.56,2.1,0.84,4.71,0.84,7.85v3.49h-16.54V42.47z M390.45,26.2
			c-0.43-0.85-1.25-1.27-2.45-1.27c-1.16,0-1.95,0.42-2.39,1.27c-0.43,0.85-0.65,2.18-0.65,4v1.52h6.13v-1.52
			C391.1,28.39,390.88,27.05,390.45,26.2z"/>
		<path class="st2" d="M411.92,44.44c0.12,0.59,0.33,1.08,0.62,1.46c0.54,0.81,1.32,1.21,2.35,1.21c0.87,0,1.62-0.25,2.26-0.76
			c0.64-0.51,0.96-1.23,0.96-2.16c0-1.02-0.4-1.8-1.21-2.35c-0.81-0.55-1.81-1.04-3-1.46c-1.2-0.42-2.49-0.87-3.87-1.33
			c-1.38-0.47-2.67-1.1-3.87-1.91c-1.2-0.8-2.2-1.87-3-3.21c-0.81-1.33-1.21-3.08-1.21-5.24c0-1.52,0.27-2.93,0.81-4.22
			c0.54-1.29,1.35-2.42,2.45-3.4c1.09-0.97,2.48-1.74,4.15-2.29c1.67-0.55,3.65-0.83,5.92-0.83c8.38,0,12.58,3.6,12.58,10.8h-9.67
			c0-1.48-0.26-2.49-0.77-3.02c-0.52-0.53-1.25-0.79-2.2-0.79c-0.83,0-1.51,0.23-2.04,0.7c-0.54,0.47-0.81,1.12-0.81,1.97
			c0,0.98,0.4,1.71,1.21,2.19c0.81,0.49,1.81,0.92,3,1.3c1.2,0.38,2.49,0.78,3.87,1.21c1.38,0.42,2.67,1.03,3.87,1.81
			c1.2,0.78,2.2,1.84,3,3.18c0.81,1.33,1.21,3.1,1.21,5.3c0,1.69-0.31,3.24-0.93,4.64c-0.62,1.4-1.5,2.6-2.63,3.62
			c-1.14,1.02-2.54,1.78-4.21,2.29s-3.56,0.76-5.67,0.76c-4.67,0-8.02-0.95-10.07-2.86c-2.04-1.91-3.07-4.74-3.07-8.51h9.79
			C411.73,43.21,411.8,43.84,411.92,44.44z"/>
		<path class="st2" d="M431.93,18.83V8.73h11.15v10.1h4.4v7.69h-4.4v16.39c0,0.97,0.22,1.66,0.65,2.06c0.43,0.4,1.11,0.6,2.01,0.6
			h1.73v7.62c-1.03,0-2.07,0.03-3.1,0.1c-1.03,0.06-2.02,0.1-2.97,0.1c-1.69,0-3.14-0.07-4.34-0.22s-2.18-0.52-2.94-1.11
			c-0.76-0.59-1.32-1.47-1.67-2.64c-0.35-1.16-0.53-2.7-0.53-4.61v-18.3h-3.72v-7.69H431.93z"/>
		<path class="st2" d="M458.51,42.47c0,1.86,0.31,3.1,0.93,3.72c0.62,0.61,1.32,0.92,2.11,0.92c0.99,0,1.77-0.41,2.32-1.24
			c0.56-0.83,0.84-2.4,0.84-4.73h10.04c-0.08,4.24-1.14,7.42-3.16,9.56c-2.02,2.14-5.35,3.21-9.98,3.21c-2.69,0-4.94-0.31-6.75-0.92
			c-1.82-0.61-3.28-1.63-4.4-3.05c-1.12-1.42-1.91-3.27-2.39-5.56c-0.48-2.29-0.71-5.06-0.71-8.32c0-3.3,0.27-6.1,0.81-8.39
			c0.54-2.29,1.38-4.15,2.54-5.59c1.16-1.44,2.63-2.49,4.43-3.15c1.8-0.66,3.96-0.98,6.48-0.98c2.23,0,4.18,0.28,5.86,0.83
			c1.67,0.55,3.08,1.47,4.21,2.76c1.14,1.29,1.98,2.99,2.54,5.08c0.56,2.1,0.84,4.71,0.84,7.85v3.49h-16.54V42.47z M469.67,6.38
			l-5.95,9.28h-7.19l2.73-9.28H469.67z M464,26.2c-0.43-0.85-1.25-1.27-2.45-1.27c-1.16,0-1.95,0.42-2.39,1.27
			c-0.43,0.85-0.65,2.18-0.65,4v1.52h6.13v-1.52C464.65,28.39,464.43,27.05,464,26.2z"/>
		<path class="st2" d="M485.47,44.44c0.12,0.59,0.33,1.08,0.62,1.46c0.54,0.81,1.32,1.21,2.35,1.21c0.87,0,1.62-0.25,2.26-0.76
			c0.64-0.51,0.96-1.23,0.96-2.16c0-1.02-0.4-1.8-1.21-2.35c-0.81-0.55-1.81-1.04-3-1.46c-1.2-0.42-2.49-0.87-3.87-1.33
			c-1.38-0.47-2.67-1.1-3.87-1.91c-1.2-0.8-2.2-1.87-3-3.21c-0.81-1.33-1.21-3.08-1.21-5.24c0-1.52,0.27-2.93,0.81-4.22
			c0.54-1.29,1.35-2.42,2.45-3.4c1.09-0.97,2.48-1.74,4.15-2.29c1.67-0.55,3.65-0.83,5.92-0.83c8.38,0,12.58,3.6,12.58,10.8h-9.67
			c0-1.48-0.26-2.49-0.77-3.02c-0.52-0.53-1.25-0.79-2.2-0.79c-0.83,0-1.51,0.23-2.04,0.7c-0.54,0.47-0.81,1.12-0.81,1.97
			c0,0.98,0.4,1.71,1.21,2.19c0.81,0.49,1.81,0.92,3,1.3c1.2,0.38,2.49,0.78,3.87,1.21c1.38,0.42,2.67,1.03,3.87,1.81
			c1.2,0.78,2.2,1.84,3,3.18c0.81,1.33,1.21,3.1,1.21,5.3c0,1.69-0.31,3.24-0.93,4.64c-0.62,1.4-1.5,2.6-2.63,3.62
			c-1.14,1.02-2.54,1.78-4.21,2.29s-3.56,0.76-5.67,0.76c-4.67,0-8.02-0.95-10.07-2.86c-2.04-1.91-3.07-4.74-3.07-8.51h9.79
			C485.28,43.21,485.35,43.84,485.47,44.44z"/>
	</g>
	<g>
		<path class="st2" d="M124.17,62.54v45.36h-10.78v-4.7h-0.12c-0.7,1.91-1.65,3.28-2.85,4.13c-1.2,0.85-2.79,1.27-4.77,1.27
			c-3.72,0-6.32-1.5-7.81-4.51c-1.49-3.01-2.23-7.71-2.23-14.1c0-3.26,0.25-5.99,0.74-8.2c0.5-2.2,1.19-3.98,2.08-5.34
			c0.89-1.35,1.97-2.33,3.25-2.92c1.28-0.59,2.68-0.89,4.21-0.89c1.57,0,2.98,0.35,4.24,1.05c1.26,0.7,2.18,1.94,2.76,3.72h0.12
			V62.54H124.17z M106.88,95.32c0.08,1.23,0.24,2.21,0.46,2.95c0.23,0.74,0.55,1.26,0.96,1.56c0.41,0.3,0.95,0.44,1.61,0.44
			c0.62,0,1.14-0.15,1.55-0.44c0.41-0.3,0.73-0.81,0.96-1.56c0.23-0.74,0.38-1.73,0.46-2.95c0.08-1.23,0.12-2.75,0.12-4.57
			c0-1.86-0.04-3.41-0.12-4.64c-0.08-1.23-0.24-2.21-0.46-2.95c-0.23-0.74-0.55-1.26-0.96-1.56c-0.41-0.3-0.93-0.44-1.55-0.44
			c-0.66,0-1.2,0.15-1.61,0.44c-0.41,0.3-0.73,0.82-0.96,1.56c-0.23,0.74-0.38,1.73-0.46,2.95c-0.08,1.23-0.12,2.77-0.12,4.64
			C106.75,92.57,106.79,94.1,106.88,95.32z"/>
		<path class="st2" d="M137.49,97.17c0,1.86,0.31,3.1,0.93,3.72c0.62,0.61,1.32,0.92,2.11,0.92c0.99,0,1.77-0.41,2.32-1.24
			c0.56-0.83,0.84-2.4,0.84-4.73h10.04c-0.08,4.24-1.14,7.42-3.16,9.56c-2.02,2.14-5.35,3.21-9.98,3.21c-2.69,0-4.94-0.31-6.75-0.92
			c-1.82-0.61-3.28-1.63-4.4-3.05c-1.12-1.42-1.91-3.27-2.39-5.56c-0.48-2.29-0.71-5.06-0.71-8.32c0-3.3,0.27-6.1,0.81-8.39
			c0.54-2.29,1.38-4.15,2.54-5.59c1.16-1.44,2.63-2.49,4.43-3.15c1.8-0.66,3.96-0.98,6.48-0.98c2.23,0,4.18,0.28,5.86,0.83
			c1.67,0.55,3.08,1.47,4.21,2.76c1.14,1.29,1.98,2.99,2.54,5.08c0.56,2.1,0.84,4.71,0.84,7.85v3.49h-16.54V97.17z M142.97,80.9
			c-0.43-0.85-1.25-1.27-2.45-1.27c-1.16,0-1.95,0.42-2.39,1.27c-0.43,0.85-0.65,2.18-0.65,4v1.52h6.13v-1.52
			C143.62,83.08,143.4,81.75,142.97,80.9z"/>
		<path class="st2" d="M164.44,99.14c0.12,0.59,0.33,1.08,0.62,1.46c0.54,0.81,1.32,1.21,2.35,1.21c0.87,0,1.62-0.25,2.26-0.76
			c0.64-0.51,0.96-1.23,0.96-2.16c0-1.02-0.4-1.8-1.21-2.35c-0.81-0.55-1.81-1.04-3-1.46c-1.2-0.42-2.49-0.87-3.87-1.33
			c-1.38-0.47-2.67-1.1-3.87-1.91c-1.2-0.8-2.2-1.87-3-3.21c-0.81-1.33-1.21-3.08-1.21-5.24c0-1.52,0.27-2.93,0.81-4.22
			c0.54-1.29,1.35-2.42,2.45-3.4c1.09-0.97,2.48-1.74,4.15-2.29c1.67-0.55,3.65-0.83,5.92-0.83c8.38,0,12.58,3.6,12.58,10.8h-9.67
			c0-1.48-0.26-2.49-0.77-3.02c-0.52-0.53-1.25-0.79-2.2-0.79c-0.83,0-1.51,0.23-2.04,0.7c-0.54,0.47-0.81,1.12-0.81,1.97
			c0,0.98,0.4,1.71,1.21,2.19c0.81,0.49,1.81,0.92,3,1.3c1.2,0.38,2.49,0.78,3.87,1.21c1.38,0.42,2.67,1.03,3.87,1.81
			c1.2,0.78,2.2,1.84,3,3.18c0.81,1.33,1.21,3.1,1.21,5.3c0,1.69-0.31,3.24-0.93,4.64c-0.62,1.4-1.5,2.6-2.63,3.62
			c-1.14,1.02-2.54,1.78-4.21,2.29s-3.56,0.76-5.67,0.76c-4.67,0-8.02-0.95-10.07-2.86c-2.04-1.91-3.07-4.74-3.07-8.51h9.79
			C164.26,97.91,164.32,98.54,164.44,99.14z"/>
		<path class="st2" d="M194,62.54v14.8h0.12c0.95-1.82,2.14-3.06,3.56-3.72c1.42-0.66,2.82-0.98,4.18-0.98
			c1.16,0,2.26,0.15,3.31,0.44c1.05,0.3,1.98,0.81,2.79,1.52c0.81,0.72,1.45,1.68,1.92,2.89c0.47,1.21,0.71,2.7,0.71,4.48v25.92
			h-11.15V85.22c0-1.44-0.21-2.48-0.62-3.11c-0.41-0.64-1.12-0.95-2.11-0.95c-0.99,0-1.69,0.32-2.11,0.95
			c-0.41,0.64-0.62,1.67-0.62,3.11v22.68h-11.15V62.54H194z"/>
		<path class="st2" d="M224.92,62.54v8.51h-11.15v-8.51H224.92z M224.92,73.53v34.37h-11.15V73.53H224.92z"/>
		<path class="st2" d="M255.65,62.54v45.36h-10.78v-4.7h-0.12c-0.7,1.91-1.65,3.28-2.85,4.13c-1.2,0.85-2.79,1.27-4.77,1.27
			c-3.72,0-6.32-1.5-7.81-4.51c-1.49-3.01-2.23-7.71-2.23-14.1c0-3.26,0.25-5.99,0.74-8.2c0.5-2.2,1.19-3.98,2.08-5.34
			c0.89-1.35,1.97-2.33,3.25-2.92c1.28-0.59,2.68-0.89,4.21-0.89c1.57,0,2.98,0.35,4.24,1.05c1.26,0.7,2.18,1.94,2.76,3.72h0.12
			V62.54H255.65z M238.36,95.32c0.08,1.23,0.24,2.21,0.46,2.95c0.23,0.74,0.55,1.26,0.96,1.56c0.41,0.3,0.95,0.44,1.61,0.44
			c0.62,0,1.14-0.15,1.55-0.44c0.41-0.3,0.73-0.81,0.96-1.56c0.23-0.74,0.38-1.73,0.46-2.95c0.08-1.23,0.12-2.75,0.12-4.57
			c0-1.86-0.04-3.41-0.12-4.64c-0.08-1.23-0.24-2.21-0.46-2.95c-0.23-0.74-0.55-1.26-0.96-1.56c-0.41-0.3-0.93-0.44-1.55-0.44
			c-0.66,0-1.2,0.15-1.61,0.44c-0.41,0.3-0.73,0.82-0.96,1.56c-0.23,0.74-0.38,1.73-0.46,2.95c-0.08,1.23-0.12,2.77-0.12,4.64
			C238.24,92.57,238.28,94.1,238.36,95.32z"/>
		<path class="st2" d="M269.28,73.53V79h0.12c0.62-2.07,1.61-3.65,2.97-4.73s2.87-1.62,4.52-1.62h1.8v10.67
			c-0.5-0.08-0.97-0.15-1.42-0.19c-0.46-0.04-0.91-0.06-1.36-0.06c-1.98,0-3.52,0.44-4.62,1.33c-1.1,0.89-1.64,2.48-1.64,4.76v18.74
			H258.5V73.53H269.28z"/>
		<path class="st2" d="M295,106.06c-0.08-0.64-0.17-1.31-0.25-2.03h-0.12c-0.62,1.52-1.6,2.67-2.94,3.43
			c-1.34,0.76-2.88,1.14-4.62,1.14c-1.69,0-3.13-0.22-4.31-0.67c-1.18-0.44-2.14-1.11-2.88-2c-0.74-0.89-1.28-1.95-1.61-3.18
			c-0.33-1.23-0.5-2.58-0.5-4.07c0-1.61,0.16-3.01,0.46-4.19c0.31-1.19,0.82-2.21,1.52-3.08c0.7-0.87,1.65-1.61,2.85-2.22
			c1.2-0.61,2.68-1.13,4.46-1.56l4.4-1.08c1.2-0.3,2.04-0.73,2.54-1.3c0.5-0.57,0.74-1.39,0.74-2.45c0-2.12-0.95-3.18-2.85-3.18
			c-1.07,0-1.86,0.31-2.35,0.92c-0.5,0.61-0.76,1.83-0.81,3.65h-9.67c0-2.5,0.43-4.5,1.3-6c0.87-1.5,1.94-2.67,3.22-3.49
			c1.28-0.83,2.66-1.38,4.15-1.65c1.49-0.27,2.87-0.41,4.15-0.41c1.94,0,3.73,0.16,5.36,0.48c1.63,0.32,3.04,0.89,4.21,1.72
			c1.18,0.83,2.09,1.95,2.73,3.37c0.64,1.42,0.96,3.25,0.96,5.5v16.77c0,1.61,0.06,3.03,0.19,4.26c0.12,1.23,0.41,2.29,0.87,3.18
			h-10.78C295.22,107.31,295.08,106.7,295,106.06z M293.94,99.71c0.54-0.93,0.81-2.35,0.81-4.26v-4.13h-0.12
			c-0.33,0.47-0.84,0.75-1.52,0.86c-0.68,0.11-1.44,0.35-2.26,0.73c-0.87,0.42-1.47,0.98-1.8,1.68s-0.5,1.62-0.5,2.76
			s0.25,2.05,0.74,2.73c0.5,0.68,1.16,1.02,1.98,1.02C292.52,101.11,293.41,100.64,293.94,99.71z"/>
		<path class="st2" d="M310.18,73.53v-10.1h11.15v10.1h4.4v7.69h-4.4v16.39c0,0.97,0.22,1.66,0.65,2.06c0.43,0.4,1.11,0.6,2.01,0.6
			h1.73v7.62c-1.03,0-2.07,0.03-3.1,0.1c-1.03,0.06-2.02,0.1-2.97,0.1c-1.69,0-3.14-0.07-4.34-0.22s-2.18-0.52-2.94-1.11
			c-0.76-0.59-1.32-1.47-1.67-2.64c-0.35-1.16-0.53-2.7-0.53-4.61v-18.3h-3.72v-7.69H310.18z"/>
		<path class="st2" d="M342.46,106.06c-0.08-0.64-0.17-1.31-0.25-2.03h-0.12c-0.62,1.52-1.6,2.67-2.94,3.43
			c-1.34,0.76-2.88,1.14-4.62,1.14c-1.69,0-3.13-0.22-4.31-0.67c-1.18-0.44-2.14-1.11-2.88-2c-0.74-0.89-1.28-1.95-1.61-3.18
			c-0.33-1.23-0.5-2.58-0.5-4.07c0-1.61,0.16-3.01,0.46-4.19c0.31-1.19,0.82-2.21,1.52-3.08c0.7-0.87,1.65-1.61,2.85-2.22
			c1.2-0.61,2.68-1.13,4.46-1.56l4.4-1.08c1.2-0.3,2.04-0.73,2.54-1.3c0.5-0.57,0.74-1.39,0.74-2.45c0-2.12-0.95-3.18-2.85-3.18
			c-1.07,0-1.86,0.31-2.35,0.92c-0.5,0.61-0.76,1.83-0.81,3.65h-9.67c0-2.5,0.43-4.5,1.3-6c0.87-1.5,1.94-2.67,3.22-3.49
			c1.28-0.83,2.66-1.38,4.15-1.65c1.49-0.27,2.87-0.41,4.15-0.41c1.94,0,3.73,0.16,5.36,0.48c1.63,0.32,3.04,0.89,4.21,1.72
			c1.18,0.83,2.09,1.95,2.73,3.37c0.64,1.42,0.96,3.25,0.96,5.5v16.77c0,1.61,0.06,3.03,0.19,4.26c0.12,1.23,0.41,2.29,0.87,3.18
			h-10.78C342.69,107.31,342.54,106.7,342.46,106.06z M341.41,99.71c0.54-0.93,0.81-2.35,0.81-4.26v-4.13h-0.12
			c-0.33,0.47-0.84,0.75-1.52,0.86c-0.68,0.11-1.44,0.35-2.26,0.73c-0.87,0.42-1.47,0.98-1.8,1.68s-0.5,1.62-0.5,2.76
			s0.25,2.05,0.74,2.73c0.5,0.68,1.16,1.02,1.98,1.02C339.98,101.11,340.87,100.64,341.41,99.71z"/>
		<path class="st2" d="M383.6,62.54v45.36h-10.78v-4.7h-0.12c-0.7,1.91-1.65,3.28-2.85,4.13c-1.2,0.85-2.79,1.27-4.77,1.27
			c-3.72,0-6.32-1.5-7.81-4.51c-1.49-3.01-2.23-7.71-2.23-14.1c0-3.26,0.25-5.99,0.74-8.2c0.5-2.2,1.19-3.98,2.08-5.34
			c0.89-1.35,1.97-2.33,3.25-2.92c1.28-0.59,2.68-0.89,4.21-0.89c1.57,0,2.98,0.35,4.24,1.05c1.26,0.7,2.18,1.94,2.76,3.72h0.12
			V62.54H383.6z M366.32,95.32c0.08,1.23,0.24,2.21,0.46,2.95c0.23,0.74,0.55,1.26,0.96,1.56c0.41,0.3,0.95,0.44,1.61,0.44
			c0.62,0,1.14-0.15,1.55-0.44c0.41-0.3,0.73-0.81,0.96-1.56c0.23-0.74,0.38-1.73,0.46-2.95c0.08-1.23,0.12-2.75,0.12-4.57
			c0-1.86-0.04-3.41-0.12-4.64c-0.08-1.23-0.24-2.21-0.46-2.95c-0.23-0.74-0.55-1.26-0.96-1.56c-0.41-0.3-0.93-0.44-1.55-0.44
			c-0.66,0-1.2,0.15-1.61,0.44c-0.41,0.3-0.73,0.82-0.96,1.56c-0.23,0.74-0.38,1.73-0.46,2.95c-0.08,1.23-0.12,2.77-0.12,4.64
			C366.19,92.57,366.23,94.1,366.32,95.32z"/>
		<path class="st2" d="M413.81,97.36c-0.31,2.16-0.96,4.08-1.95,5.75c-0.99,1.67-2.43,3.01-4.31,4c-1.88,0.99-4.39,1.49-7.53,1.49
			c-3.26,0-5.85-0.46-7.75-1.37s-3.33-2.18-4.28-3.81c-0.95-1.63-1.56-3.54-1.83-5.72c-0.27-2.18-0.4-4.52-0.4-7.02
			c0-2.24,0.16-4.45,0.46-6.61c0.31-2.16,0.96-4.09,1.95-5.78c0.99-1.69,2.43-3.06,4.31-4.1c1.88-1.04,4.39-1.56,7.53-1.56
			c3.26,0,5.84,0.48,7.75,1.43c1.9,0.95,3.33,2.26,4.28,3.91s1.56,3.57,1.83,5.75c0.27,2.18,0.4,4.52,0.4,7.02
			C414.28,93,414.12,95.2,413.81,97.36z M397.05,96.06c0.08,1.38,0.25,2.47,0.5,3.27c0.25,0.81,0.57,1.36,0.96,1.65
			c0.39,0.3,0.9,0.44,1.52,0.44c0.62,0,1.14-0.15,1.55-0.44c0.41-0.3,0.73-0.85,0.96-1.65c0.23-0.8,0.38-1.9,0.46-3.27
			c0.08-1.38,0.12-3.14,0.12-5.3s-0.04-3.94-0.12-5.34c-0.08-1.4-0.24-2.5-0.46-3.3c-0.23-0.8-0.55-1.35-0.96-1.65
			c-0.41-0.3-0.93-0.44-1.55-0.44c-0.62,0-1.13,0.15-1.52,0.44c-0.39,0.3-0.71,0.85-0.96,1.65c-0.25,0.81-0.41,1.91-0.5,3.3
			c-0.08,1.4-0.12,3.18-0.12,5.34S396.97,94.68,397.05,96.06z"/>
	</g>
	<g>
		<path class="st2" d="M7.73,195.89h8.3l1.3,17.03v14.99H6.56v-14.99L7.73,195.89z M17.09,182.74v10.04H6.68v-10.04H17.09z"/>
		<path class="st2" d="M35.81,171.94l7.44,27.95h0.12v-27.95h10.78v45.36H41.51l-7.68-28.02H33.7v28.02H22.92v-45.36H35.81z"/>
		<path class="st2" d="M84.26,171.94v9.66H69.57v7.75h13.76v9.28H69.57v9.02h15.24v9.66H58.05v-45.36H84.26z"/>
		<path class="st2" d="M104.46,180.46c-0.5-0.93-1.3-1.4-2.42-1.4c-0.87,0-1.56,0.23-2.08,0.7c-0.52,0.47-0.91,1.29-1.18,2.48
			c-0.27,1.19-0.44,2.79-0.53,4.8c-0.08,2.01-0.12,4.54-0.12,7.59c0,3.05,0.04,5.58,0.12,7.59c0.08,2.01,0.26,3.61,0.53,4.8
			c0.27,1.19,0.66,2.01,1.18,2.48c0.52,0.47,1.21,0.7,2.08,0.7c0.7,0,1.28-0.18,1.74-0.54c0.45-0.36,0.81-0.96,1.05-1.81
			c0.25-0.85,0.42-1.98,0.53-3.4c0.1-1.42,0.16-3.21,0.16-5.37h11.15v3.37c0,3.18-0.41,5.78-1.24,7.81
			c-0.83,2.03-1.92,3.63-3.28,4.8c-1.36,1.17-2.92,1.95-4.68,2.35c-1.76,0.4-3.56,0.6-5.42,0.6c-3.22,0-5.87-0.4-7.93-1.21
			c-2.07-0.8-3.68-2.15-4.83-4.03c-1.16-1.88-1.95-4.32-2.38-7.31c-0.43-2.99-0.65-6.6-0.65-10.83c0-4.32,0.26-7.98,0.78-10.99
			c0.52-3.01,1.39-5.44,2.63-7.31c1.24-1.86,2.87-3.21,4.9-4.03c2.02-0.83,4.52-1.24,7.5-1.24c2.6,0,4.81,0.34,6.63,1.02
			c1.82,0.68,3.29,1.64,4.43,2.89c1.14,1.25,1.96,2.75,2.48,4.51c0.52,1.76,0.77,3.74,0.77,5.94v2.86H105.2v-2.54
			C105.2,183.15,104.96,181.39,104.46,180.46z"/>
		<path class="st2" d="M145.54,171.94v9.66h-14.69v7.75h13.76v9.28h-13.76v9.02h15.24v9.66h-26.77v-45.36H145.54z"/>
		<path class="st2" d="M166.05,183.95c0-1.35-0.27-2.51-0.81-3.46c-0.54-0.95-1.36-1.43-2.48-1.43c-1.24,0-2.15,0.41-2.73,1.24
			c-0.58,0.83-0.87,1.75-0.87,2.76c0,1.48,0.46,2.66,1.39,3.53c0.93,0.87,2.1,1.62,3.5,2.26c1.4,0.64,2.91,1.28,4.52,1.94
			c1.61,0.66,3.12,1.51,4.52,2.57c1.4,1.06,2.57,2.45,3.5,4.16s1.39,3.95,1.39,6.7c0,4.83-1.34,8.33-4.03,10.51
			c-2.69,2.18-6.57,3.27-11.65,3.27c-2.4,0-4.51-0.2-6.35-0.6c-1.84-0.4-3.39-1.1-4.65-2.1c-1.26-1-2.22-2.3-2.88-3.91
			c-0.66-1.61-0.99-3.6-0.99-5.97v-1.59h11.15v1.08c0,1.95,0.35,3.31,1.05,4.1c0.7,0.78,1.61,1.18,2.73,1.18
			c1.2,0,2.12-0.42,2.76-1.27c0.64-0.85,0.96-1.88,0.96-3.11c0-1.48-0.44-2.66-1.33-3.53c-0.89-0.87-2-1.61-3.35-2.22
			c-1.34-0.61-2.8-1.24-4.37-1.87c-1.57-0.64-3.03-1.46-4.37-2.48c-1.34-1.02-2.46-2.35-3.35-4c-0.89-1.65-1.33-3.81-1.33-6.48
			c0-4.62,1.2-8.13,3.59-10.55c2.4-2.41,6.03-3.62,10.91-3.62c5.04,0,8.68,1.11,10.94,3.34c2.25,2.22,3.38,5.77,3.38,10.64h-10.78
			V183.95z"/>
		<path class="st2" d="M191.7,171.94v45.36h-11.53v-45.36H191.7z"/>
		<path class="st2" d="M192.45,181.98v-10.04h28.75v10.04h-8.67v35.32H201v-35.32H192.45z"/>
		<path class="st2" d="M240.65,171.94l10.78,45.36h-12.27l-1.18-7.94h-9.17l-1.18,7.94h-12.08l10.6-45.36H240.65z M233.34,181.22
			l-3.16,19.25h6.44l-3.16-19.25H233.34z"/>
		<path class="st2" d="M269.1,183.95c0-1.35-0.27-2.51-0.81-3.46c-0.54-0.95-1.36-1.43-2.48-1.43c-1.24,0-2.15,0.41-2.73,1.24
			c-0.58,0.83-0.87,1.75-0.87,2.76c0,1.48,0.46,2.66,1.39,3.53c0.93,0.87,2.1,1.62,3.5,2.26c1.4,0.64,2.91,1.28,4.52,1.94
			c1.61,0.66,3.12,1.51,4.52,2.57c1.4,1.06,2.57,2.45,3.5,4.16s1.39,3.95,1.39,6.7c0,4.83-1.34,8.33-4.03,10.51
			c-2.69,2.18-6.57,3.27-11.65,3.27c-2.4,0-4.51-0.2-6.35-0.6c-1.84-0.4-3.39-1.1-4.65-2.1c-1.26-1-2.22-2.3-2.88-3.91
			c-0.66-1.61-0.99-3.6-0.99-5.97v-1.59h11.15v1.08c0,1.95,0.35,3.31,1.05,4.1c0.7,0.78,1.61,1.18,2.73,1.18
			c1.2,0,2.12-0.42,2.76-1.27c0.64-0.85,0.96-1.88,0.96-3.11c0-1.48-0.44-2.66-1.33-3.53c-0.89-0.87-2-1.61-3.35-2.22
			c-1.34-0.61-2.8-1.24-4.37-1.87c-1.57-0.64-3.03-1.46-4.37-2.48c-1.34-1.02-2.46-2.35-3.35-4c-0.89-1.65-1.33-3.81-1.33-6.48
			c0-4.62,1.2-8.13,3.59-10.55c2.4-2.41,6.03-3.62,10.91-3.62c5.04,0,8.68,1.11,10.94,3.34c2.25,2.22,3.38,5.77,3.38,10.64H269.1
			V183.95z"/>
		<path class="st2" d="M315.44,183.95c0-1.35-0.27-2.51-0.81-3.46c-0.54-0.95-1.36-1.43-2.48-1.43c-1.24,0-2.15,0.41-2.73,1.24
			c-0.58,0.83-0.87,1.75-0.87,2.76c0,1.48,0.46,2.66,1.39,3.53c0.93,0.87,2.1,1.62,3.5,2.26c1.4,0.64,2.91,1.28,4.52,1.94
			c1.61,0.66,3.12,1.51,4.52,2.57c1.4,1.06,2.57,2.45,3.5,4.16s1.39,3.95,1.39,6.7c0,4.83-1.34,8.33-4.03,10.51
			c-2.69,2.18-6.57,3.27-11.65,3.27c-2.4,0-4.51-0.2-6.35-0.6c-1.84-0.4-3.39-1.1-4.65-2.1c-1.26-1-2.22-2.3-2.88-3.91
			c-0.66-1.61-0.99-3.6-0.99-5.97v-1.59h11.15v1.08c0,1.95,0.35,3.31,1.05,4.1c0.7,0.78,1.61,1.18,2.73,1.18
			c1.2,0,2.12-0.42,2.76-1.27c0.64-0.85,0.96-1.88,0.96-3.11c0-1.48-0.44-2.66-1.33-3.53c-0.89-0.87-2-1.61-3.35-2.22
			c-1.34-0.61-2.8-1.24-4.37-1.87c-1.57-0.64-3.03-1.46-4.37-2.48c-1.34-1.02-2.46-2.35-3.35-4c-0.89-1.65-1.33-3.81-1.33-6.48
			c0-4.62,1.2-8.13,3.59-10.55c2.4-2.41,6.03-3.62,10.91-3.62c5.04,0,8.68,1.11,10.94,3.34c2.25,2.22,3.38,5.77,3.38,10.64h-10.78
			V183.95z"/>
		<path class="st2" d="M341.03,204.66c0,2.2,0.31,3.67,0.93,4.42c0.62,0.74,1.47,1.11,2.54,1.11s1.92-0.37,2.54-1.11
			c0.62-0.74,0.93-2.21,0.93-4.42v-32.72h11.53v29.73c0,3.18-0.33,5.82-0.99,7.94c-0.66,2.12-1.62,3.81-2.88,5.08
			c-1.26,1.27-2.82,2.14-4.68,2.6c-1.86,0.47-4.01,0.7-6.44,0.7c-2.4,0-4.53-0.23-6.41-0.7s-3.45-1.33-4.71-2.6
			c-1.26-1.27-2.22-2.96-2.88-5.08c-0.66-2.12-0.99-4.77-0.99-7.94v-29.73h11.53V204.66z"/>
		<path class="st2" d="M389.12,171.94v9.66h-14.69v7.75h13.76v9.28h-13.76v9.02h15.24v9.66h-26.77v-45.36H389.12z"/>
		<path class="st2" d="M410.34,171.94c2.18,0,4.05,0.3,5.6,0.89c1.54,0.59,2.8,1.43,3.77,2.51c0.97,1.08,1.67,2.36,2.1,3.84
			c0.43,1.48,0.65,3.09,0.65,4.83c0,3.05-0.6,5.51-1.79,7.37c-1.19,1.86-3.1,3.01-5.73,3.43v0.13c2.75,0.25,4.64,1.25,5.67,2.99
			c1.03,1.74,1.54,4.13,1.54,7.18v3.88c0,0.59,0,1.21,0,1.84s0.02,1.24,0.06,1.81s0.1,1.09,0.19,1.56c0.08,0.47,0.19,0.83,0.31,1.08
			c0.17,0.25,0.33,0.5,0.5,0.73c0.16,0.23,0.43,0.46,0.8,0.67v0.64h-12.21c-0.29-0.59-0.5-1.29-0.65-2.1
			c-0.14-0.8-0.25-1.61-0.31-2.41c-0.06-0.8-0.1-1.58-0.12-2.32c-0.02-0.74-0.03-1.34-0.03-1.81v-3.05c0-1.27-0.06-2.33-0.19-3.18
			c-0.12-0.85-0.34-1.51-0.65-2c-0.31-0.49-0.7-0.83-1.18-1.02c-0.48-0.19-1.06-0.29-1.77-0.29h-3.04v18.17h-11.53v-45.36H410.34z
			 M406.16,191.13c1.65,0,2.87-0.5,3.66-1.49c0.78-0.99,1.18-2.3,1.18-3.91c0-1.91-0.38-3.26-1.15-4.07
			c-0.76-0.8-2.01-1.21-3.75-1.21h-2.23v10.67H406.16z"/>
		<path class="st2" d="M425.92,183.79c0.54-2.99,1.43-5.42,2.67-7.31c1.24-1.88,2.87-3.26,4.89-4.13c2.02-0.87,4.5-1.3,7.44-1.3
			c2.93,0,5.41,0.44,7.44,1.3c2.02,0.87,3.66,2.25,4.89,4.13c1.24,1.88,2.13,4.32,2.67,7.31c0.54,2.99,0.81,6.6,0.81,10.83
			c0,4.24-0.27,7.85-0.81,10.83c-0.54,2.99-1.43,5.42-2.67,7.31c-1.24,1.89-2.87,3.23-4.89,4.03c-2.02,0.8-4.5,1.21-7.44,1.21
			c-2.93,0-5.41-0.4-7.44-1.21c-2.02-0.8-3.66-2.15-4.89-4.03c-1.24-1.88-2.13-4.32-2.67-7.31c-0.54-2.99-0.81-6.6-0.81-10.83
			C425.12,190.39,425.39,186.78,425.92,183.79z M437.14,202.22c0.08,2.01,0.26,3.61,0.53,4.8c0.27,1.19,0.66,2.01,1.18,2.48
			c0.52,0.47,1.21,0.7,2.08,0.7c0.87,0,1.56-0.23,2.08-0.7c0.52-0.47,0.91-1.29,1.18-2.48c0.27-1.19,0.44-2.78,0.53-4.8
			c0.08-2.01,0.12-4.54,0.12-7.59c0-3.05-0.04-5.58-0.12-7.59c-0.08-2.01-0.26-3.61-0.53-4.8c-0.27-1.19-0.66-2.01-1.18-2.48
			c-0.52-0.47-1.21-0.7-2.08-0.7c-0.87,0-1.56,0.23-2.08,0.7c-0.52,0.47-0.91,1.29-1.18,2.48c-0.27,1.19-0.44,2.79-0.53,4.8
			c-0.08,2.01-0.12,4.54-0.12,7.59C437.02,197.67,437.06,200.2,437.14,202.22z"/>
		<path class="st2" d="M469.49,171.94l3.66,13.15h0.12l3.66-13.15h12.89l-9.6,22.36l10.35,23h-12.89l-4.4-13.66h-0.12l-4.4,13.66
			h-12.7l10.29-23l-9.73-22.36H469.49z"/>
		<path class="st2" d="M492.66,171.94h10.78v15.18l-1.3,17.03h-8.3l-1.18-17.03V171.94z M503.32,207.27v10.04h-10.41v-10.04H503.32z
			"/>
	</g>
	<g>
		<polygon class="st1" points="70.24,259.66 70.24,272.64 75.75,272.64 75.75,259.66 84.74,259.66 84.74,295.04 75.75,295.04 
			75.75,280.47 70.24,280.47 70.24,295.04 61.25,295.04 61.25,259.66 		"/>
		<path class="st1" d="M96.25,266.3h-8.7v-6.64h8.7V266.3z M96.25,295.04h-8.7v-26.81h8.7V295.04z"/>
		<path class="st1" d="M120.18,259.66v35.39h-8.41v-3.67h-0.1c-0.55,1.49-1.29,2.56-2.22,3.22c-0.94,0.66-2.18,0.99-3.73,0.99
			c-2.9,0-4.93-1.17-6.09-3.52c-1.16-2.35-1.74-6.01-1.74-11c0-2.54,0.19-4.68,0.58-6.39c0.39-1.72,0.92-3.11,1.62-4.16
			c0.69-1.06,1.54-1.82,2.54-2.28c1-0.46,2.09-0.69,3.29-0.69c1.23,0,2.33,0.27,3.31,0.82c0.99,0.55,1.7,1.51,2.15,2.9h0.1v-11.6
			H120.18z M106.69,285.23c0.06,0.96,0.18,1.73,0.36,2.31c0.18,0.58,0.43,0.98,0.75,1.21c0.32,0.23,0.74,0.35,1.26,0.35
			c0.48,0,0.89-0.12,1.21-0.35c0.32-0.23,0.57-0.64,0.75-1.21c0.18-0.58,0.3-1.35,0.36-2.31c0.06-0.95,0.1-2.14,0.1-3.57
			c0-1.45-0.03-2.66-0.1-3.62c-0.06-0.96-0.19-1.73-0.36-2.3c-0.18-0.58-0.43-0.98-0.75-1.21c-0.32-0.23-0.72-0.35-1.21-0.35
			c-0.52,0-0.94,0.12-1.26,0.35c-0.32,0.23-0.57,0.64-0.75,1.21c-0.18,0.58-0.3,1.35-0.36,2.3c-0.07,0.96-0.1,2.16-0.1,3.62
			C106.59,283.08,106.63,284.27,106.69,285.23"/>
		<path class="st1" d="M130.76,268.23v4.26h0.1c0.48-1.62,1.26-2.85,2.32-3.69c1.06-0.84,2.24-1.26,3.53-1.26h1.41v8.33
			c-0.39-0.07-0.76-0.11-1.12-0.15c-0.35-0.03-0.71-0.05-1.06-0.05c-1.55,0-2.75,0.35-3.6,1.04c-0.85,0.69-1.28,1.93-1.28,3.71
			v14.62h-8.7v-26.81H130.76z"/>
		<path class="st1" d="M150.77,293.61c-0.06-0.49-0.13-1.02-0.19-1.59h-0.1c-0.48,1.19-1.25,2.08-2.3,2.68s-2.25,0.89-3.6,0.89
			c-1.32,0-2.44-0.17-3.36-0.52c-0.92-0.35-1.67-0.87-2.25-1.56c-0.58-0.69-1-1.52-1.26-2.48c-0.26-0.96-0.39-2.01-0.39-3.17
			c0-1.26,0.12-2.35,0.36-3.27c0.24-0.93,0.64-1.72,1.18-2.4c0.55-0.68,1.29-1.26,2.23-1.74c0.93-0.48,2.09-0.88,3.48-1.21
			l3.43-0.84c0.93-0.23,1.6-0.57,1.98-1.01c0.39-0.45,0.58-1.09,0.58-1.91c0-1.65-0.74-2.48-2.22-2.48c-0.84,0-1.45,0.24-1.84,0.72
			c-0.39,0.48-0.6,1.43-0.63,2.85h-7.54c0-1.95,0.34-3.51,1.02-4.68c0.68-1.17,1.52-2.08,2.52-2.73c0.99-0.65,2.08-1.07,3.24-1.29
			c1.16-0.22,2.24-0.32,3.24-0.32c1.51,0,2.91,0.13,4.18,0.37c1.27,0.25,2.37,0.7,3.29,1.34c0.92,0.65,1.63,1.52,2.13,2.63
			c0.5,1.11,0.75,2.54,0.75,4.29v13.09c0,1.26,0.05,2.36,0.15,3.32c0.1,0.96,0.32,1.78,0.68,2.48h-8.41
			C150.95,294.58,150.84,294.1,150.77,293.61 M149.95,288.65c0.42-0.73,0.63-1.84,0.63-3.32v-3.22h-0.1
			c-0.26,0.36-0.65,0.59-1.18,0.67c-0.53,0.09-1.12,0.27-1.76,0.57c-0.68,0.33-1.15,0.77-1.4,1.31c-0.26,0.55-0.39,1.26-0.39,2.16
			c0,0.89,0.19,1.61,0.58,2.13c0.39,0.53,0.9,0.79,1.55,0.79C148.84,289.74,149.53,289.38,149.95,288.65"/>
		<path class="st1" d="M162.62,268.23v-7.88h8.7v7.88h3.43v6h-3.43v12.79c0,0.76,0.17,1.3,0.51,1.61c0.34,0.32,0.86,0.47,1.57,0.47
			h1.35v5.95c-0.81,0-1.61,0.03-2.42,0.07c-0.81,0.05-1.58,0.07-2.32,0.07c-1.32,0-2.45-0.06-3.39-0.17c-0.94-0.12-1.7-0.4-2.3-0.87
			c-0.6-0.46-1.03-1.15-1.3-2.06c-0.28-0.91-0.41-2.1-0.41-3.59v-14.27h-2.9v-6H162.62z"/>
		<path class="st1" d="M187.75,293.61c-0.06-0.49-0.13-1.02-0.19-1.59h-0.1c-0.48,1.19-1.25,2.08-2.3,2.68s-2.25,0.89-3.6,0.89
			c-1.32,0-2.44-0.17-3.36-0.52c-0.92-0.35-1.67-0.87-2.25-1.56c-0.58-0.69-1-1.52-1.26-2.48c-0.26-0.96-0.39-2.01-0.39-3.17
			c0-1.26,0.12-2.35,0.36-3.27c0.24-0.93,0.64-1.72,1.18-2.4c0.55-0.68,1.29-1.26,2.23-1.74c0.93-0.48,2.09-0.88,3.48-1.21
			l3.43-0.84c0.93-0.23,1.6-0.57,1.98-1.01c0.39-0.45,0.58-1.09,0.58-1.91c0-1.65-0.74-2.48-2.22-2.48c-0.84,0-1.45,0.24-1.84,0.72
			c-0.39,0.48-0.6,1.43-0.63,2.85h-7.54c0-1.95,0.34-3.51,1.02-4.68c0.68-1.17,1.52-2.08,2.52-2.73c0.99-0.65,2.08-1.07,3.24-1.29
			c1.16-0.22,2.24-0.32,3.24-0.32c1.51,0,2.91,0.13,4.18,0.37c1.27,0.25,2.37,0.7,3.29,1.34c0.92,0.65,1.63,1.52,2.13,2.63
			c0.5,1.11,0.75,2.54,0.75,4.29v13.09c0,1.26,0.05,2.36,0.15,3.32c0.1,0.96,0.32,1.78,0.68,2.48h-8.41
			C187.93,294.58,187.82,294.1,187.75,293.61 M186.93,288.65c0.42-0.73,0.63-1.84,0.63-3.32v-3.22h-0.1
			c-0.26,0.36-0.65,0.59-1.18,0.67c-0.53,0.09-1.12,0.27-1.76,0.57c-0.68,0.33-1.15,0.77-1.4,1.31c-0.26,0.55-0.39,1.26-0.39,2.16
			c0,0.89,0.19,1.61,0.58,2.13c0.39,0.53,0.9,0.79,1.55,0.79C185.82,289.74,186.51,289.38,186.93,288.65"/>
		<path class="st1" d="M211.2,276.09c-0.1-0.68-0.24-1.23-0.44-1.66c-0.35-0.76-1-1.14-1.93-1.14c-0.48,0-0.9,0.13-1.23,0.37
			c-0.34,0.25-0.6,0.7-0.79,1.34c-0.19,0.65-0.33,1.51-0.41,2.58c-0.08,1.07-0.12,2.44-0.12,4.09c0,1.65,0.04,3.02,0.12,4.09
			c0.08,1.07,0.22,1.92,0.41,2.55c0.19,0.63,0.46,1.07,0.79,1.32c0.34,0.24,0.75,0.37,1.23,0.37c0.81,0,1.43-0.32,1.86-0.94
			c0.43-0.62,0.65-1.78,0.65-3.47v-1.74h7.83c0,2.11-0.17,3.92-0.53,5.4c-0.35,1.49-0.95,2.71-1.79,3.67
			c-1.64,1.78-4.32,2.68-8.02,2.68c-1.68,0-3.21-0.15-4.59-0.45c-1.39-0.3-2.57-0.93-3.55-1.91c-0.98-0.97-1.75-2.34-2.3-4.11
			c-0.55-1.76-0.82-4.1-0.82-7.01c0-3.17,0.3-5.72,0.92-7.63c0.61-1.91,1.44-3.39,2.49-4.41c1.05-1.02,2.28-1.7,3.7-2.03
			c1.42-0.33,2.95-0.5,4.59-0.5c1.93,0,3.54,0.28,4.81,0.82c1.27,0.55,2.29,1.31,3.05,2.28c0.75,0.97,1.29,2.15,1.59,3.52
			c0.3,1.37,0.46,2.9,0.46,4.58h-7.83C211.34,277.65,211.29,276.76,211.2,276.09"/>
		<path class="st1" d="M229.23,266.3h-8.7v-6.64h8.7V266.3z M229.23,295.04h-8.7v-26.81h8.7V295.04z"/>
		<path class="st1" d="M252.75,286.82c-0.24,1.69-0.75,3.18-1.52,4.48s-1.89,2.35-3.36,3.12c-1.46,0.78-3.42,1.17-5.87,1.17
			c-2.55,0-4.56-0.36-6.04-1.07c-1.48-0.71-2.59-1.7-3.34-2.97c-0.74-1.27-1.21-2.76-1.42-4.46c-0.21-1.7-0.32-3.53-0.32-5.48
			c0-1.75,0.12-3.47,0.36-5.15c0.24-1.69,0.75-3.19,1.52-4.51c0.78-1.32,1.9-2.39,3.36-3.2c1.47-0.81,3.43-1.21,5.88-1.21
			c2.55,0,4.56,0.37,6.04,1.11c1.48,0.74,2.59,1.76,3.33,3.05c0.74,1.29,1.22,2.78,1.43,4.49c0.21,1.7,0.32,3.53,0.32,5.47
			C253.11,283.42,252.99,285.13,252.75,286.82 M248.71,258.52l-4.64,7.24h-5.61l2.13-7.24H248.71z M239.67,285.8
			c0.06,1.07,0.19,1.92,0.39,2.55c0.19,0.63,0.44,1.05,0.75,1.29c0.3,0.23,0.7,0.35,1.18,0.35c0.48,0,0.88-0.11,1.21-0.35
			c0.32-0.23,0.57-0.66,0.75-1.29c0.18-0.63,0.3-1.48,0.36-2.55c0.06-1.07,0.1-2.45,0.1-4.14c0-1.68-0.03-3.07-0.1-4.16
			c-0.06-1.09-0.19-1.95-0.36-2.58c-0.18-0.62-0.43-1.06-0.75-1.29c-0.32-0.23-0.72-0.35-1.21-0.35c-0.48,0-0.88,0.12-1.18,0.35
			c-0.31,0.23-0.55,0.66-0.75,1.29c-0.19,0.63-0.32,1.49-0.39,2.58c-0.07,1.09-0.1,2.48-0.1,4.16
			C239.57,283.35,239.6,284.73,239.67,285.8"/>
		<path class="st1" d="M263.02,268.23v3.27h0.1c1.13-2.64,3.24-3.96,6.33-3.96c0.97,0,1.86,0.11,2.68,0.32
			c0.83,0.21,1.54,0.6,2.15,1.16c0.61,0.56,1.09,1.31,1.45,2.23c0.35,0.92,0.53,2.11,0.53,3.57v20.22h-8.7v-17.69
			c0-1.12-0.16-1.93-0.48-2.43c-0.32-0.49-0.87-0.74-1.64-0.74c-0.77,0-1.32,0.25-1.64,0.74c-0.32,0.5-0.48,1.31-0.48,2.43v17.69
			h-8.7v-26.81H263.02z"/>
		<path class="st1" d="M296.76,288.21c0.1,0.46,0.26,0.84,0.48,1.14c0.42,0.63,1.03,0.94,1.84,0.94c0.68,0,1.26-0.2,1.76-0.6
			c0.5-0.4,0.75-0.96,0.75-1.69c0-0.79-0.31-1.4-0.94-1.83c-0.63-0.43-1.41-0.81-2.34-1.14c-0.94-0.33-1.94-0.68-3.02-1.04
			c-1.08-0.36-2.09-0.86-3.02-1.49c-0.94-0.63-1.72-1.46-2.35-2.51c-0.63-1.04-0.94-2.4-0.94-4.09c0-1.19,0.21-2.29,0.63-3.3
			c0.42-1.01,1.05-1.89,1.91-2.65c0.85-0.76,1.93-1.36,3.24-1.78c1.3-0.43,2.84-0.65,4.62-0.65c6.54,0,9.81,2.81,9.81,8.43h-7.54
			c0-1.16-0.2-1.95-0.61-2.36c-0.4-0.41-0.97-0.62-1.71-0.62c-0.65,0-1.18,0.18-1.6,0.55c-0.42,0.36-0.63,0.88-0.63,1.53
			c0,0.76,0.32,1.33,0.94,1.71c0.63,0.38,1.41,0.72,2.35,1.02c0.93,0.3,1.94,0.61,3.02,0.94c1.08,0.33,2.09,0.8,3.02,1.41
			c0.93,0.61,1.72,1.44,2.34,2.48c0.63,1.04,0.94,2.42,0.94,4.14c0,1.32-0.24,2.53-0.72,3.62c-0.48,1.09-1.17,2.03-2.05,2.83
			c-0.89,0.79-1.98,1.39-3.29,1.78c-1.3,0.39-2.78,0.6-4.42,0.6c-3.64,0-6.26-0.74-7.86-2.23c-1.59-1.49-2.39-3.7-2.39-6.64h7.64
			C296.61,287.25,296.66,287.74,296.76,288.21"/>
		<path class="st1" d="M319.77,268.23v17.69c0,1.12,0.16,1.93,0.48,2.43c0.32,0.49,0.87,0.74,1.64,0.74c0.77,0,1.32-0.25,1.64-0.74
			c0.32-0.5,0.48-1.31,0.48-2.43v-17.69h8.7v26.81h-8.41v-3.27h-0.1c-1.1,2.55-3.21,3.82-6.33,3.82c-0.97,0-1.86-0.09-2.68-0.27
			c-0.82-0.18-1.54-0.54-2.15-1.09c-0.61-0.55-1.1-1.29-1.45-2.23c-0.35-0.95-0.53-2.12-0.53-3.55v-20.22H319.77z"/>
		<path class="st1" d="M343.55,268.23v3.67h0.1c1-2.91,2.98-4.36,5.95-4.36c2.9,0,4.93,1.21,6.09,3.62
			c1.16,2.41,1.74,6.1,1.74,11.05c0,2.57-0.19,4.72-0.58,6.44c-0.38,1.72-0.93,3.1-1.62,4.14c-0.7,1.04-1.53,1.77-2.51,2.18
			c-0.98,0.41-2.09,0.62-3.31,0.62c-1.22,0-2.33-0.25-3.31-0.74c-0.98-0.5-1.7-1.44-2.15-2.83h-0.1v11.6h-8.7v-35.39H343.55z
			 M343.94,285.23c0.06,0.96,0.18,1.73,0.36,2.31c0.18,0.58,0.43,0.98,0.75,1.21c0.32,0.23,0.73,0.35,1.21,0.35
			c0.52,0,0.93-0.12,1.26-0.35c0.32-0.23,0.57-0.64,0.75-1.21c0.18-0.58,0.3-1.35,0.36-2.31c0.07-0.95,0.1-2.16,0.1-3.62
			s-0.03-2.65-0.1-3.59c-0.06-0.94-0.19-1.7-0.36-2.28c-0.18-0.58-0.43-0.98-0.75-1.21c-0.32-0.23-0.74-0.35-1.26-0.35
			c-0.48,0-0.89,0.12-1.21,0.35c-0.32,0.23-0.57,0.64-0.75,1.21c-0.18,0.58-0.3,1.34-0.36,2.28c-0.07,0.94-0.1,2.14-0.1,3.59
			S343.87,284.27,343.94,285.23"/>
		<path class="st1" d="M366.85,286.67c0,1.46,0.24,2.42,0.73,2.9c0.48,0.48,1.03,0.72,1.64,0.72c0.77,0,1.38-0.32,1.81-0.97
			c0.43-0.65,0.65-1.88,0.65-3.7h7.83c-0.06,3.3-0.88,5.79-2.46,7.46c-1.58,1.67-4.17,2.51-7.78,2.51c-2.1,0-3.85-0.24-5.27-0.72
			c-1.42-0.48-2.56-1.27-3.43-2.38c-0.87-1.11-1.49-2.55-1.86-4.34c-0.37-1.78-0.56-3.95-0.56-6.49c0-2.58,0.21-4.76,0.63-6.54
			c0.42-1.79,1.08-3.24,1.99-4.36c0.9-1.12,2.05-1.94,3.46-2.45c1.4-0.51,3.08-0.77,5.05-0.77c1.74,0,3.26,0.21,4.57,0.65
			c1.3,0.43,2.4,1.15,3.29,2.15c0.89,1.01,1.55,2.33,1.98,3.96c0.43,1.64,0.65,3.68,0.65,6.12v2.73h-12.91V286.67z M371.13,273.98
			c-0.34-0.66-0.98-0.99-1.91-0.99c-0.9,0-1.52,0.33-1.86,0.99c-0.34,0.66-0.51,1.7-0.51,3.12v1.19h4.79v-1.19
			C371.64,275.68,371.47,274.64,371.13,273.98"/>
		<path class="st1" d="M389.14,268.23v4.26h0.1c0.48-1.62,1.26-2.85,2.32-3.69c1.06-0.84,2.24-1.26,3.53-1.26h1.41v8.33
			c-0.39-0.07-0.76-0.11-1.11-0.15c-0.35-0.03-0.71-0.05-1.06-0.05c-1.55,0-2.75,0.35-3.6,1.04c-0.86,0.69-1.28,1.93-1.28,3.71
			v14.62h-8.7v-26.81H389.14z"/>
		<path class="st1" d="M405.62,266.3h-8.7v-6.64h8.7V266.3z M405.62,295.04h-8.7v-26.81h8.7V295.04z"/>
		<path class="st1" d="M429.14,286.82c-0.24,1.69-0.75,3.18-1.52,4.48s-1.89,2.35-3.36,3.12c-1.46,0.78-3.42,1.17-5.87,1.17
			c-2.55,0-4.56-0.36-6.04-1.07c-1.48-0.71-2.59-1.7-3.34-2.97c-0.74-1.27-1.21-2.76-1.42-4.46c-0.21-1.7-0.32-3.53-0.32-5.48
			c0-1.75,0.12-3.47,0.36-5.15c0.24-1.69,0.75-3.19,1.52-4.51c0.78-1.32,1.89-2.39,3.36-3.2c1.47-0.81,3.43-1.21,5.88-1.21
			c2.54,0,4.56,0.37,6.04,1.11c1.48,0.74,2.6,1.76,3.33,3.05c0.74,1.29,1.22,2.78,1.43,4.49c0.21,1.7,0.32,3.53,0.32,5.47
			C429.5,283.42,429.38,285.13,429.14,286.82 M416.06,285.8c0.06,1.07,0.19,1.92,0.39,2.55c0.19,0.63,0.44,1.05,0.75,1.29
			c0.3,0.23,0.7,0.35,1.18,0.35s0.88-0.11,1.21-0.35c0.32-0.23,0.57-0.66,0.75-1.29c0.17-0.63,0.3-1.48,0.36-2.55
			c0.06-1.07,0.1-2.45,0.1-4.14c0-1.68-0.03-3.07-0.1-4.16c-0.06-1.09-0.19-1.95-0.36-2.58c-0.18-0.62-0.43-1.06-0.75-1.29
			c-0.32-0.23-0.72-0.35-1.21-0.35s-0.88,0.12-1.18,0.35c-0.31,0.23-0.55,0.66-0.75,1.29c-0.19,0.63-0.32,1.49-0.39,2.58
			c-0.07,1.09-0.1,2.48-0.1,4.16C415.96,283.35,416,284.73,416.06,285.8"/>
		<path class="st1" d="M439.17,268.23v4.26h0.1c0.48-1.62,1.26-2.85,2.32-3.69c1.06-0.84,2.24-1.26,3.53-1.26h1.41v8.33
			c-0.39-0.07-0.76-0.11-1.11-0.15c-0.35-0.03-0.71-0.05-1.06-0.05c-1.55,0-2.75,0.35-3.6,1.04c-0.85,0.69-1.28,1.93-1.28,3.71
			v14.62h-8.7v-26.81H439.17z"/>
	</g>
</g>
</svg>
