<?xml version="1.0" encoding="UTF-8" standalone="no"?>
<!DOCTYPE svg PUBLIC "-//W3C//DTD SVG 1.1//EN" "http://www.w3.org/Graphics/SVG/1.1/DTD/svg11.dtd">
<svg width="100%" height="100%" viewBox="0 0 300 300" version="1.1" xmlns="http://www.w3.org/2000/svg" xmlns:xlink="http://www.w3.org/1999/xlink" xml:space="preserve" xmlns:serif="http://www.serif.com/" style="fill-rule:evenodd;clip-rule:evenodd;stroke-linejoin:round;stroke-miterlimit:2;">
    <g transform="matrix(7.83619,0,0,7.83619,107.144,177.673)">
        <path d="M0,-6.809C0.1,-4.793 0.984,-3.059 2.909,-1.91C3.139,-1.773 3.216,-1.805 3.333,-2.04C4.72,-4.833 3.715,-8.178 1.01,-9.764C0.804,-9.885 0.735,-9.855 0.635,-9.651C0.221,-8.808 0.027,-7.916 0,-6.809M-8.021,-4.631C-7.993,-4.351 -7.973,-4.069 -7.934,-3.789C-7.336,0.437 -2.566,2.679 1.059,0.44C1.486,0.175 1.486,0.175 1.076,-0.114C-2.146,-2.384 -3.369,-6.58 -1.865,-10.208C-1.693,-10.622 -1.693,-10.622 -2.129,-10.618C-5.362,-10.589 -8.013,-7.889 -8.021,-4.631M2.515,-11.832C2.932,-11.491 3.366,-11.167 3.763,-10.804C6.323,-8.465 7.153,-4.736 5.843,-1.516C5.641,-1.019 5.647,-0.998 6.207,-1.039C8.723,-1.222 10.561,-2.444 11.506,-4.773C12.458,-7.117 12.005,-9.297 10.276,-11.154C8.267,-13.313 4.781,-13.596 2.515,-11.832M20.468,-22.425C21.213,-22.129 21.446,-21.565 21.436,-20.792C21.406,-18.75 21.428,-16.708 21.425,-14.667C21.424,-14.022 21.142,-13.566 20.636,-13.369C19.8,-13.041 18.938,-13.633 18.924,-14.568C18.907,-15.613 18.919,-16.659 18.919,-17.704L18.919,-18.132C18.79,-18.017 18.709,-17.952 18.635,-17.879C16.77,-16.018 14.908,-14.154 13.036,-12.301C12.84,-12.107 12.825,-11.987 12.982,-11.756C16.403,-6.715 13.569,0.149 7.589,1.307C6.54,1.509 5.481,1.518 4.433,1.298C4.176,1.245 4.001,1.293 3.809,1.477C2.624,2.612 1.222,3.339 -0.395,3.64C-0.663,3.691 -0.782,3.774 -0.773,4.081C-0.748,4.99 -0.758,5.901 -0.77,6.811C-0.772,7.035 -0.711,7.106 -0.479,7.102C0.333,7.088 1.146,7.093 1.96,7.098C2.792,7.102 3.339,7.609 3.331,8.361C3.324,9.09 2.776,9.591 1.964,9.597C1.163,9.603 0.361,9.608 -0.438,9.592C-0.695,9.587 -0.772,9.657 -0.771,9.919C-0.758,11.272 -0.765,12.625 -0.765,13.977C-0.764,14.556 -0.98,15.013 -1.53,15.254C-2.354,15.616 -3.251,15.027 -3.263,14.101C-3.28,12.736 -3.281,11.371 -3.259,10.006C-3.253,9.656 -3.363,9.582 -3.688,9.591C-4.489,9.613 -5.291,9.614 -6.092,9.594C-7.125,9.568 -7.717,8.528 -7.187,7.685C-6.93,7.275 -6.54,7.097 -6.062,7.097C-5.237,7.097 -4.411,7.086 -3.586,7.103C-3.32,7.109 -3.258,7.026 -3.263,6.773C-3.277,5.863 -3.282,4.952 -3.26,4.043C-3.254,3.765 -3.359,3.695 -3.602,3.649C-5.71,3.248 -7.409,2.177 -8.74,0.503C-11.174,-2.559 -11.074,-7.183 -8.484,-10.12C-6.497,-12.374 -3.987,-13.383 -0.998,-13.025C-0.324,-12.945 0.088,-13.096 0.578,-13.521C3.317,-15.895 7.564,-16.123 10.587,-14.107C11.026,-13.814 11.026,-13.814 11.411,-14.197C13.224,-16.006 15.036,-17.815 16.847,-19.625C16.921,-19.7 16.978,-19.792 17.042,-19.876C16.938,-19.892 16.835,-19.921 16.731,-19.922C15.684,-19.925 14.636,-19.913 13.589,-19.927C12.588,-19.941 11.985,-20.844 12.377,-21.705C12.549,-22.082 12.879,-22.256 13.222,-22.425L20.468,-22.425Z" style="fill:rgb(194,10,48);fill-rule:nonzero;"/>
    </g>
</svg>
